{"glyphs":{"0":{"ha":781,"x_min":0,"x_max":0,"o":"m 434 521 l 434 347 l 260 347 l 260 521 m 521 174 l 521 694 l 434 694 l 434 781 l 260 781 l 260 694 l 174 694 l 174 174 l 260 174 l 260 87 l 434 87 l 434 174 m 87 87 l 87 174 l 0 174 l 0 694 l 87 694 l 87 781 l 174 781 l 174 868 l 521 868 l 521 781 l 608 781 l 608 694 l 694 694 l 694 174 l 608 174 l 608 87 l 521 87 l 521 0 l 174 0 l 174 87 "},"1":{"ha":781,"x_min":0,"x_max":0,"o":"m 174 694 l 174 781 l 260 781 l 260 868 l 434 868 l 434 87 l 608 87 l 608 0 l 87 0 l 87 87 l 260 87 l 260 608 l 87 608 l 87 694 "},"2":{"ha":781,"x_min":0,"x_max":0,"o":"m 87 260 l 87 347 l 174 347 l 174 434 l 260 434 l 260 521 l 347 521 l 347 608 l 434 608 l 434 781 l 174 781 l 174 694 l 0 694 l 0 781 l 87 781 l 87 868 l 521 868 l 521 781 l 608 781 l 608 608 l 521 608 l 521 521 l 434 521 l 434 434 l 347 434 l 347 347 l 260 347 l 260 260 l 174 260 l 174 87 l 434 87 l 434 174 l 608 174 l 608 0 l 0 0 l 0 260 "},"3":{"ha":781,"x_min":0,"x_max":0,"o":"m 434 521 l 434 781 l 174 781 l 174 694 l 0 694 l 0 781 l 87 781 l 87 868 l 521 868 l 521 781 l 608 781 l 608 521 l 521 521 l 521 434 l 608 434 l 608 87 l 521 87 l 521 0 l 87 0 l 87 87 l 0 87 l 0 174 l 174 174 l 174 87 l 434 87 l 434 434 l 174 434 l 174 521 "},"4":{"ha":781,"x_min":0,"x_max":0,"o":"m 347 434 l 347 608 l 260 608 l 260 521 l 174 521 l 174 434 m 608 347 l 521 347 l 521 87 l 608 87 l 608 0 l 260 0 l 260 87 l 347 87 l 347 347 l 0 347 l 0 521 l 87 521 l 87 608 l 174 608 l 174 694 l 260 694 l 260 781 l 347 781 l 347 868 l 521 868 l 521 434 l 608 434 "},"5":{"ha":781,"x_min":0,"x_max":0,"o":"m 521 521 l 521 434 l 608 434 l 608 87 l 521 87 l 521 0 l 87 0 l 87 87 l 0 87 l 0 174 l 174 174 l 174 87 l 434 87 l 434 434 l 0 434 l 0 868 l 608 868 l 608 781 l 174 781 l 174 521 "},"6":{"ha":781,"x_min":0,"x_max":0,"o":"m 174 434 l 174 87 l 434 87 l 434 434 m 174 781 l 174 868 l 434 868 l 434 781 l 260 781 l 260 694 l 174 694 l 174 521 l 521 521 l 521 434 l 608 434 l 608 87 l 521 87 l 521 0 l 87 0 l 87 87 l 0 87 l 0 694 l 87 694 l 87 781 "},"7":{"ha":781,"x_min":0,"x_max":0,"o":"m 260 347 l 260 434 l 347 434 l 347 521 l 434 521 l 434 781 l 174 781 l 174 694 l 0 694 l 0 868 l 608 868 l 608 521 l 521 521 l 521 434 l 434 434 l 434 347 l 347 347 l 347 0 l 174 0 l 174 347 "},"8":{"ha":781,"x_min":0,"x_max":0,"o":"m 174 781 l 174 521 l 434 521 l 434 781 m 174 434 l 174 87 l 434 87 l 434 434 m 87 434 l 87 521 l 0 521 l 0 781 l 87 781 l 87 868 l 521 868 l 521 781 l 608 781 l 608 521 l 521 521 l 521 434 l 608 434 l 608 87 l 521 87 l 521 0 l 87 0 l 87 87 l 0 87 l 0 434 "},"9":{"ha":781,"x_min":0,"x_max":0,"o":"m 434 87 l 434 0 l 87 0 l 87 87 m 434 521 l 434 781 l 174 781 l 174 521 m 434 174 l 434 434 l 87 434 l 87 521 l 0 521 l 0 781 l 87 781 l 87 868 l 521 868 l 521 781 l 608 781 l 608 174 l 521 174 l 521 87 l 347 87 l 347 174 "},"¤":{"ha":781,"x_min":0,"x_max":0,"o":""},"­":{"ha":781,"x_min":0,"x_max":0,"o":""},"®":{"ha":781,"x_min":0,"x_max":0,"o":""},"¯":{"ha":781,"x_min":0,"x_max":0,"o":""},"³":{"ha":781,"x_min":0,"x_max":0,"o":""},"´":{"ha":781,"x_min":0,"x_max":0,"o":""},"¶":{"ha":781,"x_min":0,"x_max":0,"o":""},"¸":{"ha":781,"x_min":0,"x_max":0,"o":""},"¹":{"ha":781,"x_min":0,"x_max":0,"o":""},"¾":{"ha":781,"x_min":0,"x_max":0,"o":""},"È":{"ha":781,"x_min":0,"x_max":0,"o":""},"Ý":{"ha":781,"x_min":0,"x_max":0,"o":""},"Þ":{"ha":781,"x_min":0,"x_max":0,"o":""},"õ":{"ha":781,"x_min":0,"x_max":0,"o":""},"ø":{"ha":781,"x_min":0,"x_max":0,"o":""},"Τ":{"ha":781,"x_min":0,"x_max":0,"o":""},"Υ":{"ha":781,"x_min":0,"x_max":0,"o":""},"Χ":{"ha":781,"x_min":0,"x_max":0,"o":""},"Ψ":{"ha":781,"x_min":0,"x_max":0,"o":""},"β":{"ha":781,"x_min":0,"x_max":0,"o":""},"γ":{"ha":781,"x_min":0,"x_max":0,"o":""},"ρ":{"ha":781,"x_min":0,"x_max":0,"o":""},"ς":{"ha":781,"x_min":0,"x_max":0,"o":""},"υ":{"ha":781,"x_min":0,"x_max":0,"o":""},"∛":{"ha":781,"x_min":0,"x_max":0,"o":""},"∜":{"ha":781,"x_min":0,"x_max":0,"o":""},"∝":{"ha":781,"x_min":0,"x_max":0,"o":""},"≢":{"ha":781,"x_min":0,"x_max":0,"o":""},"≣":{"ha":781,"x_min":0,"x_max":0,"o":""},"━":{"ha":781,"x_min":0,"x_max":0,"o":""},"┍":{"ha":781,"x_min":0,"x_max":0,"o":""},"┎":{"ha":781,"x_min":0,"x_max":0,"o":""},"┏":{"ha":781,"x_min":0,"x_max":0,"o":""},"┑":{"ha":781,"x_min":0,"x_max":0,"o":""},"┒":{"ha":781,"x_min":0,"x_max":0,"o":""},"┓":{"ha":781,"x_min":0,"x_max":0,"o":""},"┕":{"ha":781,"x_min":0,"x_max":0,"o":""},"┖":{"ha":781,"x_min":0,"x_max":0,"o":""},"┗":{"ha":781,"x_min":0,"x_max":0,"o":""},"┙":{"ha":781,"x_min":0,"x_max":0,"o":""},"┚":{"ha":781,"x_min":0,"x_max":0,"o":""},"┛":{"ha":781,"x_min":0,"x_max":0,"o":""},"▁":{"ha":781,"x_min":0,"x_max":0,"o":""},"▂":{"ha":781,"x_min":0,"x_max":0,"o":""},"▃":{"ha":781,"x_min":0,"x_max":0,"o":""},"▅":{"ha":781,"x_min":0,"x_max":0,"o":""},"▆":{"ha":781,"x_min":0,"x_max":0,"o":""},"▇":{"ha":781,"x_min":0,"x_max":0,"o":""},"▉":{"ha":781,"x_min":0,"x_max":0,"o":""},"▊":{"ha":781,"x_min":0,"x_max":0,"o":""},"▋":{"ha":781,"x_min":0,"x_max":0,"o":""},"▍":{"ha":781,"x_min":0,"x_max":0,"o":""},"▎":{"ha":781,"x_min":0,"x_max":0,"o":""},"▏":{"ha":781,"x_min":0,"x_max":0,"o":""},"▔":{"ha":781,"x_min":0,"x_max":0,"o":""},"▕":{"ha":781,"x_min":0,"x_max":0,"o":""},"▞":{"ha":781,"x_min":0,"x_max":0,"o":""},"▟":{"ha":781,"x_min":0,"x_max":0,"o":""},"\r":{"ha":1389,"x_min":0,"x_max":0,"o":""}," ":{"ha":781,"x_min":0,"x_max":0,"o":""},"!":{"ha":781,"x_min":0,"x_max":0,"o":"m 434 174 l 434 0 l 260 0 l 260 174 m 260 781 l 260 868 l 434 868 l 434 781 l 521 781 l 521 521 l 434 521 l 434 260 l 260 260 l 260 521 l 174 521 l 174 781 "},"\"":{"ha":781,"x_min":0,"x_max":0,"o":"m 434 608 l 434 955 l 608 955 l 608 694 l 521 694 l 521 608 m 87 694 l 87 955 l 260 955 l 260 608 l 174 608 l 174 694 "},"#":{"ha":781,"x_min":0,"x_max":0,"o":"m 347 521 l 260 521 l 260 260 l 347 260 m 260 781 l 260 608 l 347 608 l 347 781 l 521 781 l 521 608 l 608 608 l 608 521 l 521 521 l 521 260 l 608 260 l 608 174 l 521 174 l 521 0 l 347 0 l 347 174 l 260 174 l 260 0 l 87 0 l 87 174 l 0 174 l 0 260 l 87 260 l 87 521 l 0 521 l 0 608 l 87 608 l 87 781 "},"$":{"ha":781,"x_min":0,"x_max":0,"o":"m 174 781 l 174 521 l 521 521 l 521 434 l 608 434 l 608 87 l 521 87 l 521 0 l 434 0 l 434 -174 l 260 -174 l 260 0 l 87 0 l 87 87 l 0 87 l 0 260 l 87 260 l 87 174 l 174 174 l 174 87 l 434 87 l 434 434 l 87 434 l 87 521 l 0 521 l 0 781 l 87 781 l 87 868 l 260 868 l 260 1042 l 434 1042 l 434 868 l 521 868 l 521 781 l 608 781 l 608 608 l 521 608 l 521 694 l 434 694 l 434 781 "},"%":{"ha":781,"x_min":0,"x_max":0,"o":"m 608 174 l 608 0 l 434 0 l 434 174 m 174 694 l 174 521 l 0 521 l 0 694 m 434 434 l 434 347 l 347 347 l 347 260 l 260 260 l 260 174 l 174 174 l 174 87 l 87 87 l 87 0 l 0 0 l 0 174 l 87 174 l 87 260 l 174 260 l 174 347 l 260 347 l 260 434 l 347 434 l 347 521 l 434 521 l 434 608 l 521 608 l 521 694 l 608 694 l 608 521 l 521 521 l 521 434 "},"&":{"ha":781,"x_min":0,"x_max":0,"o":"m 260 781 l 260 608 l 347 608 l 347 781 m 435 521 l 608 521 l 608 434 l 521 434 l 521 87 l 608 87 l 608 0 l 434 0 l 434 87 l 347 87 l 347 347 l 260 347 l 260 434 l 174 434 l 174 87 l 347 87 l 347 85 l 347 0 l 87 0 l 87 87 l 0 87 l 0 434 l 87 434 l 87 521 l 174 521 l 174 608 l 87 608 l 87 781 l 174 781 l 174 868 l 434 868 l 434 781 l 521 781 l 521 608 l 434 608 l 434 521 l 347 521 l 347 434 l 434 434 l 434 520 "},"'":{"ha":781,"x_min":0,"x_max":0,"o":"m 174 694 l 174 955 l 347 955 l 347 694 l 260 694 l 260 608 l 87 608 l 87 694 "},"(":{"ha":781,"x_min":0,"x_max":0,"o":"m 260 694 l 260 781 l 347 781 l 347 868 l 521 868 l 521 781 l 434 781 l 434 694 l 347 694 l 347 174 l 434 174 l 434 87 l 521 87 l 521 0 l 347 0 l 347 87 l 260 87 l 260 174 l 174 174 l 174 694 "},")":{"ha":781,"x_min":0,"x_max":0,"o":"m 260 87 l 260 174 l 347 174 l 347 694 l 260 694 l 260 781 l 174 781 l 174 868 l 347 868 l 347 781 l 434 781 l 434 694 l 521 694 l 521 174 l 434 174 l 434 87 l 347 87 l 347 0 l 174 0 l 174 87 "},"*":{"ha":781,"x_min":0,"x_max":0,"o":"m 260 608 l 260 521 l 434 521 l 434 608 l 608 608 l 608 521 l 521 521 l 521 434 l 694 434 l 694 347 l 521 347 l 521 260 l 608 260 l 608 174 l 434 174 l 434 260 l 260 260 l 260 174 l 87 174 l 87 260 l 174 260 l 174 347 l 0 347 l 0 434 l 174 434 l 174 521 l 87 521 l 87 608 "},"+":{"ha":781,"x_min":0,"x_max":0,"o":"m 260 434 l 260 608 l 434 608 l 434 434 l 608 434 l 608 347 l 434 347 l 434 174 l 260 174 l 260 347 l 87 347 l 87 434 "},",":{"ha":781,"x_min":0,"x_max":0,"o":"m 260 0 l 260 260 l 434 260 l 434 0 l 347 0 l 347 -87 l 174 -87 l 174 0 "},"-":{"ha":781,"x_min":0,"x_max":0,"o":"m 608 434 l 608 347 l 0 347 l 0 434 "},".":{"ha":781,"x_min":0,"x_max":0,"o":"m 434 174 l 434 0 l 260 0 l 260 174 "},"/":{"ha":781,"x_min":0,"x_max":0,"o":"m 434 434 l 434 347 l 347 347 l 347 260 l 260 260 l 260 174 l 174 174 l 174 87 l 87 87 l 87 0 l 0 0 l 0 174 l 87 174 l 87 260 l 174 260 l 174 347 l 260 347 l 260 434 l 347 434 l 347 521 l 434 521 l 434 608 l 521 608 l 521 694 l 608 694 l 608 521 l 521 521 l 521 434 "},":":{"ha":781,"x_min":0,"x_max":0,"o":"m 434 260 l 434 87 l 260 87 l 260 260 m 434 694 l 434 521 l 260 521 l 260 694 "},";":{"ha":781,"x_min":0,"x_max":0,"o":"m 434 694 l 434 521 l 260 521 l 260 694 m 434 260 l 434 87 l 347 87 l 347 0 l 174 0 l 174 87 l 260 87 l 260 260 "},"<":{"ha":781,"x_min":0,"x_max":0,"o":"m 608 781 l 608 694 l 521 694 l 521 608 l 434 608 l 434 521 l 347 521 l 347 434 l 260 434 l 260 347 l 347 347 l 347 260 l 434 260 l 434 174 l 521 174 l 521 87 l 608 87 l 608 0 l 434 0 l 434 87 l 347 87 l 347 174 l 260 174 l 260 260 l 174 260 l 174 347 l 87 347 l 87 434 l 174 434 l 174 521 l 260 521 l 260 608 l 347 608 l 347 694 l 434 694 l 434 781 "},"=":{"ha":781,"x_min":0,"x_max":0,"o":"m 608 608 l 608 521 l 87 521 l 87 608 m 608 347 l 608 260 l 87 260 l 87 347 "},">":{"ha":781,"x_min":0,"x_max":0,"o":"m 260 781 l 260 694 l 347 694 l 347 608 l 434 608 l 434 521 l 521 521 l 521 434 l 608 434 l 608 347 l 521 347 l 521 260 l 434 260 l 434 174 l 347 174 l 347 87 l 260 87 l 260 0 l 87 0 l 87 87 l 174 87 l 174 174 l 260 174 l 260 260 l 347 260 l 347 347 l 434 347 l 434 434 l 347 434 l 347 521 l 260 521 l 260 608 l 174 608 l 174 694 l 87 694 l 87 781 "},"?":{"ha":781,"x_min":0,"x_max":0,"o":"m 434 174 l 434 0 l 260 0 l 260 174 m 347 521 l 347 608 l 434 608 l 434 781 l 174 781 l 174 608 l 0 608 l 0 781 l 87 781 l 87 868 l 521 868 l 521 781 l 608 781 l 608 608 l 521 608 l 521 521 l 434 521 l 434 260 l 260 260 l 260 521 "},"@":{"ha":781,"x_min":0,"x_max":0,"o":"m 434 521 l 434 694 l 174 694 l 174 87 l 521 87 l 521 0 l 87 0 l 87 87 l 0 87 l 0 694 l 87 694 l 87 781 l 521 781 l 521 694 l 608 694 l 608 260 l 521 260 l 521 174 l 260 174 l 260 521 "},"A":{"ha":781,"x_min":0,"x_max":0,"o":"m 260 694 l 260 608 l 174 608 l 174 434 l 434 434 l 434 608 l 347 608 l 347 694 m 434 347 l 174 347 l 174 0 l 0 0 l 0 608 l 87 608 l 87 694 l 174 694 l 174 781 l 260 781 l 260 868 l 347 868 l 347 781 l 434 781 l 434 694 l 521 694 l 521 608 l 608 608 l 608 0 l 434 0 "},"B":{"ha":781,"x_min":0,"x_max":0,"o":"m 434 521 l 434 781 l 260 781 l 260 521 m 260 434 l 260 87 l 434 87 l 434 434 m 87 87 l 87 781 l 0 781 l 0 868 l 521 868 l 521 781 l 608 781 l 608 521 l 521 521 l 521 434 l 608 434 l 608 87 l 521 87 l 521 0 l 0 0 l 0 87 "},"C":{"ha":781,"x_min":0,"x_max":0,"o":"m 260 781 l 260 694 l 174 694 l 174 174 l 260 174 l 260 87 l 434 87 l 434 174 l 521 174 l 521 260 l 608 260 l 608 87 l 521 87 l 521 0 l 174 0 l 174 87 l 87 87 l 87 174 l 0 174 l 0 694 l 87 694 l 87 781 l 174 781 l 174 868 l 521 868 l 521 781 l 608 781 l 608 608 l 521 608 l 521 694 l 434 694 l 434 781 "},"D":{"ha":781,"x_min":0,"x_max":0,"o":"m 347 694 l 347 781 l 260 781 l 260 87 l 347 87 l 347 174 l 434 174 l 434 694 m 434 0 l 0 0 l 0 87 l 87 87 l 87 781 l 0 781 l 0 868 l 434 868 l 434 781 l 521 781 l 521 694 l 608 694 l 608 174 l 521 174 l 521 87 l 434 87 "},"E":{"ha":781,"x_min":0,"x_max":0,"o":"m 260 434 l 260 87 l 434 87 l 434 174 l 521 174 l 521 260 l 608 260 l 608 0 l 0 0 l 0 87 l 87 87 l 87 781 l 0 781 l 0 868 l 608 868 l 608 608 l 521 608 l 521 694 l 434 694 l 434 781 l 260 781 l 260 521 l 347 521 l 347 608 l 434 608 l 434 347 l 347 347 l 347 434 "},"F":{"ha":781,"x_min":0,"x_max":0,"o":"m 434 694 l 434 781 l 260 781 l 260 521 l 347 521 l 347 608 l 434 608 l 434 347 l 347 347 l 347 434 l 260 434 l 260 87 l 347 87 l 347 0 l 0 0 l 0 87 l 87 87 l 87 781 l 0 781 l 0 868 l 608 868 l 608 608 l 521 608 l 521 694 "},"G":{"ha":781,"x_min":0,"x_max":0,"o":"m 608 434 l 608 0 l 521 0 l 521 87 l 434 87 l 434 347 l 260 347 l 260 434 m 260 781 l 260 694 l 174 694 l 174 174 l 260 174 l 260 87 l 434 87 l 434 0 l 174 0 l 174 87 l 87 87 l 87 174 l 0 174 l 0 694 l 87 694 l 87 781 l 174 781 l 174 868 l 521 868 l 521 781 l 608 781 l 608 608 l 521 608 l 521 694 l 434 694 l 434 781 "},"H":{"ha":781,"x_min":0,"x_max":0,"o":"m 174 434 l 174 0 l 0 0 l 0 868 l 174 868 l 174 521 l 434 521 l 434 868 l 608 868 l 608 0 l 434 0 l 434 434 "},"I":{"ha":781,"x_min":0,"x_max":0,"o":"m 521 868 l 521 781 l 434 781 l 434 87 l 521 87 l 521 0 l 174 0 l 174 87 l 260 87 l 260 781 l 174 781 l 174 868 "},"J":{"ha":781,"x_min":0,"x_max":0,"o":"m 608 868 l 608 781 l 521 781 l 521 87 l 434 87 l 434 0 l 87 0 l 87 87 l 0 87 l 0 347 l 174 347 l 174 87 l 347 87 l 347 781 l 260 781 l 260 868 "},"K":{"ha":781,"x_min":0,"x_max":0,"o":"m 434 521 l 434 347 l 521 347 l 521 260 l 608 260 l 608 0 l 434 0 l 434 260 l 347 260 l 347 347 l 260 347 l 260 0 l 0 0 l 0 87 l 87 87 l 87 781 l 0 781 l 0 868 l 260 868 l 260 521 l 347 521 l 347 608 l 434 608 l 434 868 l 608 868 l 608 608 l 521 608 l 521 521 "},"L":{"ha":781,"x_min":0,"x_max":0,"o":"m 434 87 l 434 174 l 521 174 l 521 260 l 608 260 l 608 0 l 0 0 l 0 87 l 87 87 l 87 781 l 0 781 l 0 868 l 260 868 l 347 868 l 347 781 l 260 781 l 260 87 "},"M":{"ha":781,"x_min":0,"x_max":0,"o":"m 260 434 l 260 521 l 174 521 l 174 0 l 0 0 l 0 868 l 174 868 l 174 781 l 260 781 l 260 694 l 434 694 l 434 781 l 521 781 l 521 868 l 694 868 l 694 0 l 521 0 l 521 521 l 434 521 l 434 434 "},"N":{"ha":781,"x_min":0,"x_max":0,"o":"m 260 434 l 260 521 l 174 521 l 174 0 l 0 0 l 0 868 l 174 868 l 174 781 l 260 781 l 260 694 l 347 694 l 347 608 l 434 608 l 434 868 l 608 868 l 608 0 l 434 0 l 434 347 l 347 347 l 347 434 "},"O":{"ha":781,"x_min":0,"x_max":0,"o":"m 174 781 l 174 87 l 434 87 l 434 781 m 87 781 l 87 868 l 521 868 l 521 781 l 608 781 l 608 87 l 521 87 l 521 0 l 87 0 l 87 87 l 0 87 l 0 781 "},"P":{"ha":781,"x_min":0,"x_max":0,"o":"m 260 781 l 260 521 l 434 521 l 434 781 m 347 87 l 347 0 l 0 0 l 0 87 l 87 87 l 87 781 l 0 781 l 0 868 l 521 868 l 521 781 l 608 781 l 608 521 l 521 521 l 521 434 l 260 434 l 260 87 "},"Q":{"ha":781,"x_min":0,"x_max":0,"o":"m 434 174 l 434 781 l 174 781 l 174 87 l 260 87 l 260 260 l 347 260 l 347 174 m 87 0 l 87 87 l 0 87 l 0 781 l 87 781 l 87 868 l 521 868 l 521 781 l 608 781 l 608 87 l 521 87 l 521 -87 l 608 -87 l 608 -174 l 347 -174 l 347 0 "},"R":{"ha":781,"x_min":0,"x_max":0,"o":"m 260 781 l 260 521 l 434 521 l 434 781 m 347 347 l 347 434 l 260 434 l 260 0 l 0 0 l 0 87 l 87 87 l 87 781 l 0 781 l 0 868 l 521 868 l 521 781 l 608 781 l 608 521 l 521 521 l 521 347 l 608 347 l 608 0 l 434 0 l 434 347 "},"S":{"ha":781,"x_min":0,"x_max":0,"o":"m 174 260 l 174 87 l 434 87 l 434 347 l 347 347 l 347 434 l 174 434 l 174 521 l 87 521 l 87 608 l 0 608 l 0 781 l 87 781 l 87 868 l 521 868 l 521 781 l 608 781 l 608 608 l 434 608 l 434 781 l 174 781 l 174 608 l 260 608 l 260 521 l 434 521 l 434 434 l 521 434 l 521 347 l 608 347 l 608 87 l 521 87 l 521 0 l 87 0 l 87 87 l 0 87 l 0 260 "},"T":{"ha":781,"x_min":0,"x_max":0,"o":"m 260 87 l 259 782 l 172 782 l 172 694 l 87 694 l 87 608 l 0 608 l 0 868 l 694 868 l 694 608 l 608 608 l 608 694 l 521 695 l 519 784 l 433 784 l 434 87 l 521 87 l 521 0 l 174 0 l 174 87 "},"U":{"ha":781,"x_min":0,"x_max":0,"o":"m 174 868 l 174 87 l 434 87 l 434 868 l 608 868 l 608 87 l 521 87 l 521 0 l 87 0 l 87 87 l 0 87 l 0 868 "},"V":{"ha":781,"x_min":0,"x_max":0,"o":"m 174 87 l 174 174 l 87 174 l 87 260 l 0 260 l 0 868 l 174 868 l 174 260 l 260 260 l 260 174 l 434 174 l 434 260 l 521 260 l 521 868 l 694 868 l 694 260 l 608 260 l 608 174 l 521 174 l 521 87 l 434 87 l 434 0 l 260 0 l 260 87 "},"W":{"ha":781,"x_min":0,"x_max":0,"o":"m 87 0 l 87 87 l 0 87 l 0 868 l 174 868 l 174 260 l 260 260 l 260 521 l 434 521 l 434 260 l 521 260 l 521 868 l 694 868 l 694 87 l 608 87 l 608 0 l 434 0 l 434 174 l 260 174 l 260 0 "},"X":{"ha":781,"x_min":0,"x_max":0,"o":"m 87 521 l 87 694 l 0 694 l 0 868 l 174 868 l 174 694 l 260 694 l 260 608 l 434 608 l 434 694 l 521 694 l 521 868 l 694 868 l 694 694 l 608 694 l 608 521 l 521 521 l 521 347 l 608 347 l 608 174 l 694 174 l 694 0 l 521 0 l 521 174 l 434 174 l 434 260 l 260 260 l 260 174 l 174 174 l 174 0 l 0 0 l 0 174 l 87 174 l 87 347 l 174 347 l 174 521 "},"Y":{"ha":781,"x_min":0,"x_max":0,"o":"m 260 87 l 260 434 l 174 434 l 174 521 l 87 521 l 87 606 l 0 606 l 0 868 l 173 868 l 173 607 l 259 609 l 260 521 l 434 521 l 433 610 l 520 611 l 521 868 l 694 868 l 694 609 l 608 608 l 608 521 l 521 521 l 521 434 l 434 434 l 434 87 l 521 87 l 521 0 l 174 0 l 174 87 "},"Z":{"ha":781,"x_min":0,"x_max":0,"o":"m 87 260 l 87 347 l 174 347 l 174 434 l 260 434 l 260 521 l 347 521 l 347 608 l 434 608 l 434 696 l 521 696 l 521 781 l 174 781 l 174 694 l 87 694 l 87 608 l 0 608 l 0 868 l 694 868 l 692 700 l 608 699 l 608 608 l 521 608 l 521 521 l 434 521 l 434 434 l 347 434 l 347 347 l 260 347 l 260 260 l 174 260 l 174 87 l 521 87 l 521 174 l 608 174 l 608 260 l 694 260 l 694 0 l 0 0 l 0 260 "},"[":{"ha":781,"x_min":0,"x_max":0,"o":"m 521 87 l 521 0 l 174 0 l 174 868 l 521 868 l 521 781 l 347 781 l 347 87 "},"\\":{"ha":781,"x_min":0,"x_max":0,"o":"m 434 87 l 434 174 l 347 174 l 347 260 l 260 260 l 260 347 l 174 347 l 174 434 l 87 434 l 87 521 l 0 521 l 0 781 l 87 781 l 87 694 l 174 694 l 174 608 l 260 608 l 260 521 l 347 521 l 347 434 l 434 434 l 434 347 l 521 347 l 521 260 l 608 260 l 608 0 l 521 0 l 521 87 "},"]":{"ha":781,"x_min":0,"x_max":0,"o":"m 347 87 l 347 781 l 174 781 l 174 868 l 521 868 l 521 0 l 174 0 l 174 87 "},"^":{"ha":781,"x_min":0,"x_max":0,"o":"m 260 868 l 260 781 l 174 781 l 174 694 l 0 694 l 0 781 l 87 781 l 87 868 l 174 868 l 174 955 l 260 955 l 260 1042 l 347 1042 l 347 955 l 434 955 l 434 868 l 521 868 l 521 781 l 608 781 l 608 694 l 434 694 l 434 781 l 347 781 l 347 868 "},"_":{"ha":781,"x_min":0,"x_max":0,"o":"m 694 -87 l 694 -174 l 0 -174 l 0 -87 "},"`":{"ha":781,"x_min":0,"x_max":0,"o":"m 260 781 l 260 868 l 174 868 l 174 955 l 347 955 l 347 868 l 434 868 l 434 781 l 521 781 l 521 694 l 347 694 l 347 781 "},"a":{"ha":781,"x_min":0,"x_max":0,"o":"m 87 0 l 87 87 l 0 87 l 0 347 l 87 347 l 87 434 l 347 434 l 347 521 l 87 521 l 87 608 l 434 608 l 434 521 l 521 521 l 521 87 l 608 87 l 608 0 l 434 0 l 434 87 l 348 87 l 347 87 l 347 347 l 174 347 l 174 87 l 347 87 l 347 0 "},"b":{"ha":781,"x_min":0,"x_max":0,"o":"m 260 521 l 260 87 l 434 87 l 434 434 l 347 434 l 347 521 m 434 608 l 434 521 l 521 521 l 521 434 l 608 434 l 608 87 l 521 87 l 521 0 l 87 0 l 87 781 l 0 781 l 0 868 l 260 868 l 260 608 "},"c":{"ha":781,"x_min":0,"x_max":0,"o":"m 174 521 l 174 87 l 434 87 l 434 174 l 608 174 l 608 87 l 521 87 l 521 0 l 87 0 l 87 87 l 0 87 l 0 521 l 87 521 l 87 608 l 521 608 l 521 521 l 608 521 l 608 434 l 434 434 l 434 521 "},"d":{"ha":781,"x_min":0,"x_max":0,"o":"m 260 521 l 260 434 l 174 434 l 174 87 l 347 87 l 347 86 l 347 0 l 87 0 l 87 87 l 0 87 l 0 434 l 87 434 l 87 521 l 174 521 l 174 608 l 347 608 l 347 781 l 260 781 l 260 868 l 521 868 l 521 87 l 608 87 l 608 0 l 434 0 l 434 87 l 347 87 l 347 521 "},"e":{"ha":781,"x_min":0,"x_max":0,"o":"m 434 434 l 434 521 l 174 521 l 174 434 m 521 608 l 521 521 l 608 521 l 608 347 l 174 347 l 174 87 l 434 87 l 434 174 l 608 174 l 608 87 l 521 87 l 521 0 l 87 0 l 87 87 l 0 87 l 0 521 l 87 521 l 87 608 "},"f":{"ha":781,"x_min":0,"x_max":0,"o":"m 174 521 l 174 781 l 260 781 l 260 868 l 521 868 l 521 781 l 608 781 l 608 608 l 521 608 l 521 694 l 434 694 l 434 781 l 347 781 l 347 521 l 434 521 l 434 434 l 347 434 l 347 87 l 434 87 l 434 0 l 87 0 l 87 87 l 174 87 l 174 434 l 87 434 l 87 521 "},"g":{"ha":781,"x_min":0,"x_max":0,"o":"m 348 521 l 434 521 l 434 608 l 608 608 l 608 521 l 521 521 l 521 -174 l 434 -174 l 434 -260 l 87 -260 l 87 -174 l 0 -174 l 0 -87 l 174 -87 l 174 -174 l 347 -174 l 347 0 l 87 0 l 87 87 l 0 87 l 0 521 l 87 521 l 87 608 l 347 608 l 347 521 l 174 521 l 174 87 l 347 87 l 347 520 "},"h":{"ha":781,"x_min":0,"x_max":0,"o":"m 521 608 l 521 521 l 608 521 l 608 0 l 434 0 l 434 521 l 347 521 l 347 608 m 0 0 l 0 87 l 87 87 l 87 781 l 0 781 l 0 868 l 260 868 l 260 521 l 347 521 l 347 434 l 260 434 l 260 0 "},"i":{"ha":781,"x_min":0,"x_max":0,"o":"m 434 868 l 434 694 l 260 694 l 260 868 m 434 608 l 434 87 l 521 87 l 521 0 l 174 0 l 174 87 l 260 87 l 260 521 l 174 521 l 174 608 "},"j":{"ha":781,"x_min":0,"x_max":0,"o":"m 608 868 l 608 694 l 434 694 l 434 868 m 608 608 l 608 -174 l 521 -174 l 521 -260 l 174 -260 l 174 -174 l 87 -174 l 87 0 l 260 0 l 260 -174 l 434 -174 l 434 521 l 347 521 l 347 608 "},"k":{"ha":781,"x_min":0,"x_max":0,"o":"m 434 521 l 434 608 l 608 608 l 608 521 l 521 521 l 521 434 l 434 434 l 434 260 l 521 260 l 521 174 l 608 174 l 608 0 l 434 0 l 434 174 l 347 174 l 347 260 l 260 260 l 260 0 l 0 0 l 0 87 l 87 87 l 87 781 l 0 781 l 0 868 l 260 868 l 260 434 l 347 434 l 347 521 "},"l":{"ha":781,"x_min":0,"x_max":0,"o":"m 434 868 l 434 87 l 521 87 l 521 0 l 174 0 l 174 87 l 260 87 l 260 781 l 174 781 l 174 868 "},"m":{"ha":781,"x_min":0,"x_max":0,"o":"m 434 434 l 434 87 l 260 87 l 260 434 l 174 434 l 174 0 l 0 0 l 0 608 l 260 608 l 260 521 l 434 521 l 434 608 l 608 608 l 608 521 l 694 521 l 694 0 l 521 0 l 521 434 "},"n":{"ha":781,"x_min":0,"x_max":0,"o":"m 0 521 l 0 608 l 174 608 l 174 521 l 260 521 l 260 0 l 87 0 l 87 521 m 521 608 l 521 521 l 608 521 l 608 0 l 434 0 l 434 521 l 260 521 l 260 608 "},"o":{"ha":781,"x_min":0,"x_max":0,"o":"m 174 521 l 174 87 l 434 87 l 434 521 m 0 87 l 0 521 l 87 521 l 87 608 l 521 608 l 521 521 l 608 521 l 608 87 l 521 87 l 521 0 l 87 0 l 87 87 "},"p":{"ha":781,"x_min":0,"x_max":0,"o":"m 521 608 l 521 521 l 608 521 l 608 87 l 521 87 l 521 0 l 260 0 l 260 -174 l 347 -174 l 347 -260 l 0 -260 l 0 -174 l 87 -174 l 87 521 l 0 521 l 0 608 l 174 608 l 174 521 l 260 521 l 260 520 l 260 87 l 434 87 l 434 521 l 260 521 l 260 608 "},"q":{"ha":781,"x_min":0,"x_max":0,"o":"m 347 520 l 348 521 l 434 521 l 434 608 l 608 608 l 608 521 l 521 521 l 521 -174 l 608 -174 l 608 -260 l 260 -260 l 260 -174 l 347 -174 l 347 0 l 87 0 l 87 87 l 0 87 l 0 521 l 87 521 l 87 608 l 347 608 l 347 521 l 174 521 l 174 87 l 347 87 "},"r":{"ha":781,"x_min":0,"x_max":0,"o":"m 260 434 l 260 87 l 347 87 l 347 0 l 0 0 l 0 87 l 87 87 l 87 521 l 0 521 l 0 608 l 174 608 l 174 521 l 260 521 l 260 608 l 521 608 l 521 521 l 608 521 l 608 347 l 434 347 l 434 521 l 347 521 l 347 434 "},"s":{"ha":781,"x_min":0,"x_max":0,"o":"m 174 521 l 174 434 l 260 434 l 260 347 l 434 347 l 434 260 l 521 260 l 521 174 l 608 174 l 608 87 l 521 87 l 521 0 l 87 0 l 87 87 l 0 87 l 0 174 l 174 174 l 174 87 l 434 87 l 434 174 l 347 174 l 347 260 l 174 260 l 174 347 l 87 347 l 87 434 l 0 434 l 0 521 l 87 521 l 87 608 l 521 608 l 521 521 l 608 521 l 608 434 l 434 434 l 434 521 "},"t":{"ha":781,"x_min":0,"x_max":0,"o":"m 174 608 l 174 781 l 260 781 l 260 868 l 347 868 l 347 608 l 521 608 l 521 521 l 347 521 l 347 87 l 434 87 l 434 174 l 608 174 l 608 87 l 521 87 l 521 0 l 260 0 l 260 87 l 174 87 l 174 521 l 0 521 l 0 608 "},"u":{"ha":781,"x_min":0,"x_max":0,"o":"m 521 608 l 521 87 l 608 87 l 608 0 l 434 0 l 434 87 l 347 87 l 347 608 m 174 608 l 174 87 l 347 87 l 347 0 l 87 0 l 87 87 l 0 87 l 0 608 "},"v":{"ha":781,"x_min":0,"x_max":0,"o":"m 694 608 l 694 260 l 608 260 l 608 174 l 521 174 l 521 87 l 436 87 l 436 0 l 259 0 l 259 87 l 174 87 l 174 174 l 87 174 l 87 260 l 0 260 l 0 608 l 174 608 l 174 260 l 260 260 l 260 174 l 434 174 l 434 260 l 521 260 l 521 608 "},"w":{"ha":781,"x_min":0,"x_max":0,"o":"m 434 0 l 434 86 l 260 87 l 260 0 l 87 0 l 87 87 l 0 87 l 0 608 l 174 608 l 174 174 l 260 174 l 260 434 l 434 434 l 434 173 l 521 173 l 521 607 l 694 607 l 694 86 l 608 86 l 608 0 "},"x":{"ha":781,"x_min":0,"x_max":0,"o":"m 174 608 l 174 521 l 260 521 l 260 434 l 434 434 l 434 521 l 521 521 l 521 608 l 694 608 l 694 521 l 608 521 l 608 434 l 521 434 l 521 174 l 608 174 l 608 87 l 694 87 l 694 0 l 521 0 l 521 87 l 434 87 l 434 174 l 260 174 l 260 87 l 174 87 l 174 0 l 0 0 l 0 87 l 87 87 l 87 174 l 174 174 l 174 434 l 87 434 l 87 521 l 0 521 l 0 608 "},"y":{"ha":781,"x_min":0,"x_max":0,"o":"m 347 -174 l 347 -87 l 434 -87 l 434 0 l 87 0 l 87 87 l 0 87 l 0 608 l 174 608 l 174 87 l 434 87 l 434 608 l 608 608 l 608 -87 l 521 -87 l 521 -174 l 434 -174 l 434 -260 l 0 -260 l 0 -174 "},"z":{"ha":781,"x_min":0,"x_max":0,"o":"m 608 608 l 608 521 l 521 521 l 521 434 l 434 434 l 434 347 l 347 347 l 347 260 l 260 260 l 260 174 l 174 174 l 174 87 l 434 87 l 434 174 l 608 174 l 608 0 l 0 0 l 0 174 l 87 174 l 87 260 l 174 260 l 174 347 l 260 347 l 260 434 l 347 434 l 347 521 l 174 521 l 174 434 l 0 434 l 0 608 "},"{":{"ha":781,"x_min":0,"x_max":0,"o":"m 608 868 l 608 781 l 434 781 l 434 521 l 347 521 l 347 434 l 434 434 l 434 87 l 608 87 l 608 0 l 347 0 l 347 87 l 260 87 l 260 434 l 87 434 l 87 521 l 260 521 l 260 781 l 347 781 l 347 868 "},"|":{"ha":781,"x_min":0,"x_max":0,"o":"m 434 868 l 434 0 l 260 0 l 260 868 "},"}":{"ha":781,"x_min":0,"x_max":0,"o":"m 260 87 l 260 434 l 347 434 l 347 521 l 260 521 l 260 781 l 87 781 l 87 868 l 347 868 l 347 781 l 434 781 l 434 521 l 608 521 l 608 434 l 434 434 l 434 87 l 347 87 l 347 0 l 87 0 l 87 87 "},"~":{"ha":781,"x_min":0,"x_max":0,"o":"m 608 955 l 608 868 l 521 868 l 521 781 l 260 781 l 260 868 l 174 868 l 174 781 l 0 781 l 0 868 l 87 868 l 87 955 l 347 955 l 347 868 l 434 868 l 434 955 "}," ":{"ha":781,"x_min":0,"x_max":0,"o":""},"¡":{"ha":781,"x_min":0,"x_max":0,"o":"m 434 868 l 434 694 l 260 694 l 260 868 m 260 347 l 260 608 l 434 608 l 434 347 l 521 347 l 521 87 l 434 87 l 434 0 l 260 0 l 260 87 l 174 87 l 174 347 "},"¢":{"ha":781,"x_min":0,"x_max":0,"o":"m 174 694 l 174 260 l 521 260 l 521 347 l 694 347 l 694 260 l 608 260 l 608 174 l 434 174 l 434 0 l 260 0 l 260 174 l 87 174 l 87 260 l 0 260 l 0 694 l 87 694 l 87 781 l 260 781 l 260 955 l 434 955 l 434 781 l 608 781 l 608 694 l 694 694 l 694 608 l 521 608 l 521 694 "},"£":{"ha":781,"x_min":0,"x_max":0,"o":"m 260 868 l 260 608 l 347 608 l 347 521 l 260 521 l 260 87 l 434 87 l 434 174 l 608 174 l 608 87 l 521 87 l 521 0 l 0 0 l 0 174 l 87 174 l 87 521 l 0 521 l 0 608 l 87 608 l 87 868 l 174 868 l 174 955 l 434 955 l 434 868 l 521 868 l 521 694 l 434 694 l 434 781 l 347 781 l 347 868 "},"¥":{"ha":781,"x_min":0,"x_max":0,"o":"m 260 347 l 260 434 l 87 434 l 87 521 l 260 521 l 260 608 l 174 608 l 174 694 l 87 694 l 84 779 l 0 779 l 0 868 l 174 868 l 174 784 l 259 784 l 260 694 l 434 694 l 433 783 l 520 783 l 521 868 l 694 868 l 694 780 l 608 780 l 608 694 l 521 694 l 521 608 l 434 608 l 434 521 l 608 521 l 608 434 l 434 434 l 434 347 l 608 347 l 608 260 l 434 260 l 434 0 l 260 0 l 260 260 l 87 260 l 87 347 "},"ª":{"ha":781,"x_min":0,"x_max":0,"o":"m 347 608 l 347 781 l 260 781 l 260 608 m 608 434 l 608 347 l 87 347 l 87 434 m 87 608 l 87 781 l 174 781 l 174 868 l 521 868 l 521 608 l 608 608 l 608 521 l 174 521 l 174 608 "},"«":{"ha":781,"x_min":0,"x_max":0,"o":"m 434 521 l 434 608 l 608 608 l 608 521 l 521 521 l 521 434 l 434 434 l 434 347 l 521 347 l 521 260 l 608 260 l 608 174 l 434 174 l 434 260 l 348 260 l 347 261 l 347 347 l 261 347 l 260 348 l 260 434 l 347 434 l 347 521 m 347 521 l 260 521 l 260 434 l 174 434 l 174 347 l 260 347 l 260 260 l 347 260 l 347 174 l 174 174 l 174 260 l 87 260 l 87 347 l 0 347 l 0 434 l 87 434 l 87 521 l 174 521 l 174 608 l 347 608 l 347 522 "},"¬":{"ha":781,"x_min":0,"x_max":0,"o":"m 608 521 l 608 87 l 434 87 l 434 434 l 0 434 l 0 521 "},"°":{"ha":781,"x_min":0,"x_max":0,"o":"m 260 868 l 260 694 l 347 694 l 347 868 m 87 694 l 87 868 l 174 868 l 174 955 l 434 955 l 434 868 l 521 868 l 521 694 l 434 694 l 434 608 l 174 608 l 174 694 "},"±":{"ha":781,"x_min":0,"x_max":0,"o":"m 608 87 l 608 0 l 87 0 l 87 87 m 260 521 l 260 694 l 434 694 l 434 521 l 608 521 l 608 434 l 434 434 l 434 260 l 260 260 l 260 434 l 87 434 l 87 521 "},"²":{"ha":781,"x_min":0,"x_max":0,"o":"m 174 521 l 174 608 l 260 608 l 260 694 l 347 694 l 347 781 l 434 781 l 434 868 l 260 868 l 260 781 l 87 781 l 87 868 l 174 868 l 174 955 l 521 955 l 521 868 l 608 868 l 608 781 l 521 781 l 521 694 l 434 694 l 434 608 l 347 608 l 347 521 l 521 521 l 521 608 l 608 608 l 608 434 l 87 434 l 87 521 "},"µ":{"ha":781,"x_min":0,"x_max":0,"o":"m 87 -174 l 87 608 l 260 608 l 260 87 l 434 87 l 434 608 l 608 608 l 608 87 l 521 87 l 521 0 l 260 0 l 260 -174 l 174 -174 l 174 -260 l 0 -260 l 0 -174 "},"·":{"ha":781,"x_min":0,"x_max":0,"o":"m 434 434 l 434 347 l 260 347 l 260 434 "},"º":{"ha":781,"x_min":0,"x_max":0,"o":"m 260 781 l 260 608 l 347 608 l 347 781 m 521 434 l 521 347 l 87 347 l 87 434 m 87 608 l 87 781 l 174 781 l 174 868 l 434 868 l 434 781 l 521 781 l 521 608 l 434 608 l 434 521 l 174 521 l 174 608 "},"»":{"ha":781,"x_min":0,"x_max":0,"o":"m 434 608 l 434 521 l 521 521 l 521 434 l 608 434 l 608 347 l 521 347 l 521 260 l 434 260 l 434 174 l 260 174 l 260 260 l 347 260 l 347 347 l 434 347 l 434 434 l 347 434 l 347 521 l 261 521 l 260 522 l 260 608 m 347 434 l 347 348 l 347 347 l 260 347 l 260 261 l 260 260 l 174 260 l 174 174 l 0 174 l 0 260 l 87 260 l 87 347 l 174 347 l 174 434 l 87 434 l 87 521 l 0 521 l 0 608 l 174 608 l 174 521 l 260 521 l 260 434 "},"¼":{"ha":781,"x_min":0,"x_max":0,"o":"m 521 174 l 434 174 l 434 87 l 521 87 m 434 -174 l 434 0 l 174 0 l 174 87 l 260 87 l 260 174 l 347 174 l 347 260 l 434 260 l 434 347 l 608 347 l 608 87 l 694 87 l 694 0 l 608 0 l 608 -174 m 174 260 l 174 174 l 87 174 l 87 87 l 0 87 l 0 260 l 87 260 l 87 347 l 174 347 l 174 434 l 260 434 l 260 521 l 87 521 l 87 781 l 0 781 l 0 868 l 87 868 l 87 955 l 260 955 l 260 521 l 347 521 l 347 608 l 434 608 l 434 694 l 521 694 l 521 781 l 608 781 l 608 608 l 521 608 l 521 521 l 434 521 l 434 434 l 347 434 l 347 347 l 260 347 l 260 260 "},"½":{"ha":781,"x_min":0,"x_max":0,"o":"m 260 -87 l 260 0 l 347 0 l 347 87 l 434 87 l 434 174 l 260 174 l 260 260 l 174 260 l 174 174 l 87 174 l 87 87 l 0 87 l 0 260 l 87 260 l 87 347 l 174 347 l 174 434 l 260 434 l 260 521 l 87 521 l 87 781 l 0 781 l 0 868 l 87 868 l 87 955 l 260 955 l 260 521 l 347 521 l 347 608 l 434 608 l 434 694 l 521 694 l 521 781 l 608 781 l 608 608 l 521 608 l 521 521 l 434 521 l 434 434 l 347 434 l 347 347 l 260 347 l 260 260 l 521 260 l 521 174 l 608 174 l 608 87 l 521 87 l 521 0 l 434 0 l 434 -87 l 608 -87 l 608 -174 l 174 -174 l 174 -87 "},"¿":{"ha":781,"x_min":0,"x_max":0,"o":"m 347 868 l 347 694 l 174 694 l 174 868 m 347 608 l 347 434 l 260 434 l 260 347 l 174 347 l 174 87 l 434 87 l 434 260 l 608 260 l 608 87 l 521 87 l 521 0 l 87 0 l 87 87 l 0 87 l 0 347 l 87 347 l 87 434 l 174 434 l 174 608 "},"Ä":{"ha":781,"x_min":0,"x_max":0,"o":"m 608 955 l 608 868 l 434 868 l 434 955 m 174 955 l 174 868 l 0 868 l 0 955 m 260 694 l 260 608 l 174 608 l 174 434 l 434 434 l 434 608 l 347 608 l 347 694 m 434 347 l 174 347 l 174 0 l 0 0 l 0 608 l 87 608 l 87 694 l 174 694 l 174 781 l 260 781 l 260 868 l 347 868 l 347 781 l 434 781 l 434 694 l 521 694 l 521 608 l 608 608 l 608 0 l 434 0 "},"Å":{"ha":781,"x_min":0,"x_max":0,"o":"m 260 955 l 260 868 l 347 868 l 347 955 m 260 608 l 260 521 l 174 521 l 174 434 l 434 434 l 434 521 l 347 521 l 347 608 m 434 608 l 521 608 l 521 521 l 608 521 l 608 0 l 434 0 l 434 347 l 174 347 l 174 0 l 0 0 l 0 521 l 87 521 l 87 608 l 174 608 l 174 694 l 260 694 l 260 781 l 174 781 l 174 868 l 87 868 l 87 955 l 174 955 l 174 1042 l 434 1042 l 434 955 l 521 955 l 521 868 l 434 868 l 434 781 l 347 781 l 347 694 l 434 694 "},"Æ":{"ha":781,"x_min":0,"x_max":0,"o":"m 347 694 l 347 955 l 260 955 l 260 868 l 174 868 l 174 694 m 174 608 l 174 0 l 0 0 l 0 868 l 87 868 l 87 955 l 174 955 l 174 1042 l 608 1042 l 608 955 l 521 955 l 521 694 l 608 694 l 608 608 l 521 608 l 521 87 l 608 87 l 608 0 l 347 0 l 347 608 "},"Ç":{"ha":781,"x_min":0,"x_max":0,"o":"m 260 -87 l 260 0 l 174 0 l 174 87 l 87 87 l 87 174 l 0 174 l 0 694 l 87 694 l 87 781 l 174 781 l 174 868 l 521 868 l 521 781 l 608 781 l 608 608 l 521 608 l 521 694 l 434 694 l 434 781 l 260 781 l 260 694 l 174 694 l 174 174 l 260 174 l 260 87 l 434 87 l 434 174 l 521 174 l 521 260 l 608 260 l 608 87 l 521 87 l 521 0 l 434 0 l 434 -87 l 347 -87 l 347 -174 l 87 -174 l 87 -87 "},"É":{"ha":781,"x_min":0,"x_max":0,"o":"m 347 955 l 347 1042 l 521 1042 l 521 955 l 434 955 l 434 868 l 260 868 l 260 955 m 260 347 l 260 87 l 434 87 l 434 174 l 521 174 l 521 260 l 608 260 l 608 0 l 0 0 l 0 87 l 87 87 l 87 694 l 0 694 l 0 781 l 608 781 l 608 521 l 521 521 l 521 608 l 434 608 l 434 694 l 260 694 l 260 434 l 347 434 l 347 521 l 434 521 l 434 260 l 347 260 l 347 347 "},"Ñ":{"ha":781,"x_min":0,"x_max":0,"o":"m 608 1042 l 608 955 l 521 955 l 521 868 l 260 868 l 260 955 l 174 955 l 174 868 l 0 868 l 0 955 l 87 955 l 87 1042 l 347 1042 l 347 955 l 434 955 l 434 1042 m 260 347 l 260 434 l 174 434 l 174 0 l 0 0 l 0 781 l 174 781 l 174 694 l 260 694 l 260 608 l 347 608 l 347 521 l 434 521 l 434 781 l 608 781 l 608 0 l 434 0 l 434 260 l 347 260 l 347 347 "},"Ö":{"ha":781,"x_min":0,"x_max":0,"o":"m 608 955 l 608 868 l 434 868 l 434 955 m 174 955 l 174 868 l 0 868 l 0 955 m 174 694 l 174 87 l 434 87 l 434 694 m 87 694 l 87 781 l 521 781 l 521 694 l 608 694 l 608 87 l 521 87 l 521 0 l 87 0 l 87 87 l 0 87 l 0 694 "},"Ü":{"ha":781,"x_min":0,"x_max":0,"o":"m 174 955 l 174 868 l 0 868 l 0 955 m 608 955 l 608 868 l 434 868 l 434 955 m 174 781 l 174 87 l 434 87 l 434 781 l 608 781 l 608 87 l 521 87 l 521 0 l 87 0 l 87 87 l 0 87 l 0 781 "},"ß":{"ha":781,"x_min":0,"x_max":0,"o":"m 434 87 l 434 347 l 347 347 l 347 434 l 260 434 l 260 521 l 347 521 l 347 781 l 174 781 l 174 0 l 0 0 l 0 781 l 87 781 l 87 868 l 434 868 l 434 781 l 521 781 l 521 521 l 434 521 l 434 434 l 521 434 l 521 347 l 608 347 l 608 87 l 521 87 l 521 0 l 347 0 l 347 87 "},"à":{"ha":781,"x_min":0,"x_max":0,"o":"m 174 781 l 174 868 l 87 868 l 87 955 l 260 955 l 260 868 l 347 868 l 347 781 l 434 781 l 434 694 l 260 694 l 260 781 m 87 0 l 87 87 l 0 87 l 0 347 l 87 347 l 87 434 l 347 434 l 347 521 l 87 521 l 87 608 l 434 608 l 434 521 l 521 521 l 521 87 l 608 87 l 608 0 l 434 0 l 434 87 l 348 87 l 347 87 l 347 347 l 174 347 l 174 87 l 347 87 l 347 0 "},"á":{"ha":781,"x_min":0,"x_max":0,"o":"m 434 955 l 434 868 l 347 868 l 347 781 l 260 781 l 260 694 l 87 694 l 87 781 l 174 781 l 174 868 l 260 868 l 260 955 m 87 0 l 87 87 l 0 87 l 0 347 l 87 347 l 87 434 l 347 434 l 347 521 l 87 521 l 87 608 l 434 608 l 434 521 l 521 521 l 521 87 l 608 87 l 608 0 l 434 0 l 434 87 l 348 87 l 347 87 l 347 347 l 174 347 l 174 87 l 347 87 l 347 0 "},"â":{"ha":781,"x_min":0,"x_max":0,"o":"m 174 781 l 174 868 l 260 868 l 260 955 l 347 955 l 347 868 l 434 868 l 434 781 l 521 781 l 521 694 l 347 694 l 347 781 l 260 781 l 260 694 l 87 694 l 87 781 m 87 0 l 87 87 l 0 87 l 0 347 l 87 347 l 87 434 l 347 434 l 347 521 l 87 521 l 87 608 l 434 608 l 434 521 l 521 521 l 521 87 l 608 87 l 608 0 l 434 0 l 434 87 l 348 87 l 347 87 l 347 347 l 174 347 l 174 87 l 347 87 l 347 0 "},"ä":{"ha":781,"x_min":0,"x_max":0,"o":"m 521 868 l 521 781 l 347 781 l 347 868 m 174 868 l 174 781 l 0 781 l 0 868 m 87 0 l 87 87 l 0 87 l 0 347 l 87 347 l 87 434 l 347 434 l 347 521 l 87 521 l 87 608 l 434 608 l 434 521 l 521 521 l 521 87 l 608 87 l 608 0 l 434 0 l 434 87 l 348 87 l 347 87 l 347 347 l 174 347 l 174 87 l 347 87 l 347 0 "},"å":{"ha":781,"x_min":0,"x_max":0,"o":"m 260 868 l 260 781 l 347 781 l 347 868 m 174 868 l 174 955 l 434 955 l 434 868 l 521 868 l 521 781 l 434 781 l 434 694 l 174 694 l 174 781 l 87 781 l 87 868 m 87 0 l 87 87 l 0 87 l 0 347 l 87 347 l 87 434 l 347 434 l 347 521 l 87 521 l 87 608 l 434 608 l 434 521 l 521 521 l 521 87 l 608 87 l 608 0 l 434 0 l 434 87 l 348 87 l 347 87 l 347 347 l 174 347 l 174 87 l 347 87 l 347 0 "},"æ":{"ha":781,"x_min":0,"x_max":0,"o":"m 521 347 l 521 521 l 435 521 l 348 521 l 348 608 l 608 608 l 608 521 l 694 521 l 694 260 l 434 260 l 434 173 l 519 173 l 521 87 l 694 87 l 694 0 l 434 0 l 434 87 l 346 87 l 260 87 l 260 259 l 174 260 l 174 87 l 346 86 l 348 0 l 87 0 l 87 87 l 0 87 l 0 260 l 87 260 l 87 347 l 260 347 l 260 434 l 173 434 l 173 521 l 0 521 l 0 608 l 261 608 l 261 521 l 434 521 l 434 347 "},"ç":{"ha":781,"x_min":0,"x_max":0,"o":"m 260 -87 l 260 0 l 87 0 l 87 87 l 0 87 l 0 521 l 87 521 l 87 608 l 521 608 l 521 521 l 608 521 l 608 434 l 434 434 l 434 521 l 174 521 l 174 87 l 434 87 l 434 174 l 608 174 l 608 87 l 521 87 l 521 0 l 434 0 l 434 -87 l 347 -87 l 347 -174 l 87 -174 l 87 -87 "},"è":{"ha":781,"x_min":0,"x_max":0,"o":"m 434 434 l 434 521 l 174 521 l 174 434 m 174 781 l 174 868 l 87 868 l 87 955 l 260 955 l 260 868 l 347 868 l 347 781 l 434 781 l 434 694 l 260 694 l 260 781 m 521 608 l 521 521 l 608 521 l 608 347 l 174 347 l 174 87 l 434 87 l 434 174 l 608 174 l 608 87 l 521 87 l 521 0 l 87 0 l 87 87 l 0 87 l 0 521 l 87 521 l 87 608 "},"é":{"ha":781,"x_min":0,"x_max":0,"o":"m 434 434 l 434 521 l 174 521 l 174 434 m 347 868 l 347 955 l 521 955 l 521 868 l 434 868 l 434 781 l 347 781 l 347 694 l 174 694 l 174 781 l 260 781 l 260 868 m 521 608 l 521 521 l 608 521 l 608 347 l 174 347 l 174 87 l 434 87 l 434 174 l 608 174 l 608 87 l 521 87 l 521 0 l 87 0 l 87 87 l 0 87 l 0 521 l 87 521 l 87 608 "},"ê":{"ha":781,"x_min":0,"x_max":0,"o":"m 434 434 l 434 521 l 174 521 l 174 434 m 347 955 l 347 868 l 434 868 l 434 781 l 521 781 l 521 694 l 347 694 l 347 781 l 260 781 l 260 694 l 87 694 l 87 781 l 174 781 l 174 868 l 260 868 l 260 955 m 521 608 l 521 521 l 608 521 l 608 347 l 174 347 l 174 87 l 434 87 l 434 174 l 608 174 l 608 87 l 521 87 l 521 0 l 87 0 l 87 87 l 0 87 l 0 521 l 87 521 l 87 608 "},"ë":{"ha":781,"x_min":0,"x_max":0,"o":"m 608 868 l 608 781 l 434 781 l 434 868 m 174 868 l 174 781 l 0 781 l 0 868 m 434 434 l 434 521 l 174 521 l 174 434 m 521 608 l 521 521 l 608 521 l 608 347 l 174 347 l 174 87 l 434 87 l 434 174 l 608 174 l 608 87 l 521 87 l 521 0 l 87 0 l 87 87 l 0 87 l 0 521 l 87 521 l 87 608 "},"ì":{"ha":781,"x_min":0,"x_max":0,"o":"m 260 955 l 260 868 l 347 868 l 347 781 l 434 781 l 434 694 l 260 694 l 260 781 l 174 781 l 174 868 l 87 868 l 87 955 m 434 608 l 434 87 l 521 87 l 521 0 l 174 0 l 174 87 l 260 87 l 260 521 l 174 521 l 174 608 "},"í":{"ha":781,"x_min":0,"x_max":0,"o":"m 521 955 l 521 868 l 434 868 l 434 781 l 347 781 l 347 694 l 174 694 l 174 781 l 260 781 l 260 868 l 347 868 l 347 955 m 434 608 l 434 87 l 521 87 l 521 0 l 174 0 l 174 87 l 260 87 l 260 521 l 174 521 l 174 608 "},"î":{"ha":781,"x_min":0,"x_max":0,"o":"m 260 781 l 260 694 l 87 694 l 87 781 l 174 781 l 174 868 l 260 868 l 260 955 l 434 955 l 434 868 l 521 868 l 521 781 l 608 781 l 608 694 l 434 694 l 434 781 m 434 608 l 434 87 l 521 87 l 521 0 l 174 0 l 174 87 l 260 87 l 260 521 l 174 521 l 174 608 "},"ï":{"ha":781,"x_min":0,"x_max":0,"o":"m 260 868 l 260 781 l 87 781 l 87 868 m 608 868 l 608 781 l 434 781 l 434 868 m 434 608 l 434 87 l 521 87 l 521 0 l 174 0 l 174 87 l 260 87 l 260 521 l 174 521 l 174 608 "},"ñ":{"ha":781,"x_min":0,"x_max":0,"o":"m 174 781 l 174 694 l 0 694 l 0 781 l 87 781 l 87 868 l 347 868 l 347 781 l 434 781 l 434 868 l 608 868 l 608 781 l 521 781 l 521 694 l 260 694 l 260 781 m 0 521 l 0 608 l 174 608 l 174 521 l 260 521 l 260 0 l 87 0 l 87 521 m 521 608 l 521 521 l 608 521 l 608 0 l 434 0 l 434 521 l 260 521 l 260 608 "},"ò":{"ha":781,"x_min":0,"x_max":0,"o":"m 260 955 l 260 868 l 347 868 l 347 781 l 434 781 l 434 694 l 260 694 l 260 781 l 174 781 l 174 868 l 87 868 l 87 955 m 174 521 l 174 87 l 434 87 l 434 521 m 0 87 l 0 521 l 87 521 l 87 608 l 521 608 l 521 521 l 608 521 l 608 87 l 521 87 l 521 0 l 87 0 l 87 87 "},"ó":{"ha":781,"x_min":0,"x_max":0,"o":"m 434 955 l 434 868 l 347 868 l 347 781 l 260 781 l 260 694 l 87 694 l 87 781 l 174 781 l 174 868 l 260 868 l 260 955 m 174 521 l 174 87 l 434 87 l 434 521 m 0 87 l 0 521 l 87 521 l 87 608 l 521 608 l 521 521 l 608 521 l 608 87 l 521 87 l 521 0 l 87 0 l 87 87 "},"ô":{"ha":781,"x_min":0,"x_max":0,"o":"m 260 781 l 260 694 l 87 694 l 87 781 l 174 781 l 174 868 l 260 868 l 260 955 l 347 955 l 347 868 l 434 868 l 434 781 l 521 781 l 521 694 l 347 694 l 347 781 m 174 521 l 174 87 l 434 87 l 434 521 m 0 87 l 0 521 l 87 521 l 87 608 l 521 608 l 521 521 l 608 521 l 608 87 l 521 87 l 521 0 l 87 0 l 87 87 "},"ö":{"ha":781,"x_min":0,"x_max":0,"o":"m 608 868 l 608 781 l 434 781 l 434 868 m 174 868 l 174 781 l 0 781 l 0 868 m 174 521 l 174 87 l 434 87 l 434 521 m 0 87 l 0 521 l 87 521 l 87 608 l 521 608 l 521 521 l 608 521 l 608 87 l 521 87 l 521 0 l 87 0 l 87 87 "},"÷":{"ha":781,"x_min":0,"x_max":0,"o":"m 434 260 l 434 174 l 260 174 l 260 260 m 434 608 l 434 521 l 260 521 l 260 608 m 608 434 l 608 347 l 87 347 l 87 434 "},"ù":{"ha":781,"x_min":0,"x_max":0,"o":"m 260 955 l 260 868 l 347 868 l 347 781 l 434 781 l 434 694 l 260 694 l 260 781 l 174 781 l 174 868 l 87 868 l 87 955 m 521 608 l 521 87 l 608 87 l 608 0 l 434 0 l 434 87 l 347 87 l 347 608 m 174 608 l 174 87 l 347 87 l 347 0 l 87 0 l 87 87 l 0 87 l 0 608 "},"ú":{"ha":781,"x_min":0,"x_max":0,"o":"m 174 781 l 174 868 l 260 868 l 260 955 l 434 955 l 434 868 l 347 868 l 347 781 l 260 781 l 260 694 l 87 694 l 87 781 m 521 608 l 521 87 l 608 87 l 608 0 l 434 0 l 434 87 l 347 87 l 347 608 m 174 608 l 174 87 l 347 87 l 347 0 l 87 0 l 87 87 l 0 87 l 0 608 "},"û":{"ha":781,"x_min":0,"x_max":0,"o":"m 174 781 l 174 694 l 0 694 l 0 781 l 87 781 l 87 868 l 174 868 l 174 955 l 347 955 l 347 868 l 434 868 l 434 781 l 521 781 l 521 694 l 347 694 l 347 781 m 521 608 l 521 87 l 608 87 l 608 0 l 434 0 l 434 87 l 347 87 l 347 608 m 174 608 l 174 87 l 347 87 l 347 0 l 87 0 l 87 87 l 0 87 l 0 608 "},"ü":{"ha":781,"x_min":0,"x_max":0,"o":"m 521 868 l 521 781 l 347 781 l 347 868 m 174 868 l 174 781 l 0 781 l 0 868 m 521 608 l 521 87 l 608 87 l 608 0 l 434 0 l 434 87 l 347 87 l 347 608 m 174 608 l 174 87 l 347 87 l 347 0 l 87 0 l 87 87 l 0 87 l 0 608 "},"ÿ":{"ha":781,"x_min":0,"x_max":0,"o":"m 174 868 l 174 781 l 0 781 l 0 868 m 608 868 l 608 781 l 434 781 l 434 868 m 347 -174 l 347 -87 l 434 -87 l 434 0 l 87 0 l 87 87 l 0 87 l 0 608 l 174 608 l 174 87 l 434 87 l 434 608 l 608 608 l 608 -87 l 521 -87 l 521 -174 l 434 -174 l 434 -260 l 0 -260 l 0 -174 "},"Ā":{"ha":781,"x_min":0,"x_max":0,"o":"m 521 694 l 521 608 l 434 608 l 434 694 m 260 694 l 260 608 l 174 608 l 174 694 m 521 434 l 521 347 l 434 347 l 434 260 l 260 260 l 260 347 l 174 347 l 174 434 m 86 781 l 87 87 l 607 86 l 607 0 l 87 0 l 87 87 l 0 87 l 0 781 m 87 781 l 87 783 l 87 868 l 608 868 l 608 782 l 694 781 l 694 87 l 607 87 l 607 781 "},"ā":{"ha":781,"x_min":0,"x_max":0,"o":"m 521 694 l 434 694 l 434 608 l 521 608 m 260 694 l 174 694 l 174 608 l 260 608 m 434 347 l 521 347 l 521 434 l 174 434 l 174 347 l 260 347 l 260 260 l 434 260 m 87 781 l 87 868 l 608 868 l 608 781 l 694 781 l 694 87 l 608 87 l 608 0 l 87 0 l 87 87 l 0 87 l 0 781 "},"Ă":{"ha":781,"x_min":0,"x_max":0,"o":"m 87 174 l 87 260 l 0 260 l 0 608 l 87 608 l 87 694 l 260 694 l 260 608 l 347 608 l 347 694 l 521 694 l 521 608 l 608 608 l 608 260 l 521 260 l 521 174 l 434 174 l 434 87 l 347 87 l 347 0 l 260 0 l 260 87 l 174 87 l 174 174 "},"ă":{"ha":781,"x_min":0,"x_max":0,"o":"m 434 260 l 434 174 l 347 174 l 347 87 l 260 87 l 260 174 l 174 174 l 174 260 l 87 260 l 87 347 l 0 347 l 0 434 l 87 434 l 87 521 l 174 521 l 174 608 l 260 608 l 260 694 l 347 694 l 347 608 l 434 608 l 434 521 l 521 521 l 521 434 l 608 434 l 608 347 l 521 347 l 521 260 "},"Ą":{"ha":781,"x_min":0,"x_max":0,"o":"m 521 87 l 521 0 l 174 0 l 174 87 l 260 87 l 260 260 l 261 260 l 434 260 l 434 87 m 434 781 l 434 694 l 521 694 l 521 521 l 694 521 l 694 260 l 434 260 l 434 521 l 260 521 l 260 260 l 0 260 l 0 521 l 174 521 l 174 694 l 260 694 l 260 781 "},"ą":{"ha":781,"x_min":0,"x_max":0,"o":"m 87 521 l 87 608 l 174 608 l 174 694 l 260 694 l 260 781 l 434 781 l 434 694 l 521 694 l 521 608 l 608 608 l 608 521 l 694 521 l 694 347 l 608 347 l 608 260 l 434 260 l 434 87 l 521 87 l 521 0 l 174 0 l 174 87 l 260 87 l 260 260 l 87 260 l 87 347 l 0 347 l 0 521 "},"Ć":{"ha":781,"x_min":0,"x_max":0,"o":"m 260 434 l 260 521 l 434 521 l 434 434 l 521 434 l 521 260 l 434 260 l 434 174 l 260 174 l 260 260 l 174 260 l 174 434 "},"ć":{"ha":781,"x_min":0,"x_max":0,"o":"m 434 260 l 521 260 l 521 434 l 434 434 l 434 521 l 260 521 l 260 434 l 174 434 l 174 260 l 260 260 l 260 174 l 434 174 m 694 1042 l 694 -347 l 0 -347 l 0 1042 "},"Ĉ":{"ha":781,"x_min":0,"x_max":0,"o":"m 434 174 l 434 260 l 521 260 l 521 434 l 434 434 l 434 521 l 260 521 l 260 434 l 174 434 l 174 260 l 260 260 l 260 174 m 174 521 l 174 608 l 521 608 l 521 521 l 608 521 l 608 174 l 521 174 l 521 87 l 174 87 l 174 174 l 87 174 l 87 521 "},"ĉ":{"ha":781,"x_min":0,"x_max":0,"o":"m 260 174 l 260 260 l 174 260 l 174 434 l 260 434 l 260 521 l 434 521 l 434 434 l 521 434 l 521 260 l 434 260 l 434 174 m 521 174 l 608 174 l 608 521 l 521 521 l 521 608 l 174 608 l 174 521 l 87 521 l 87 174 l 174 174 l 174 87 l 521 87 m 694 1042 l 694 -347 l 0 -347 l 0 1042 "},"Ċ":{"ha":781,"x_min":0,"x_max":0,"o":"m 174 434 l 174 87 l 347 87 l 347 434 m 434 694 l 434 608 l 347 608 l 347 521 l 434 521 l 434 434 l 521 434 l 521 87 l 434 87 l 434 0 l 87 0 l 87 87 l 0 87 l 0 434 l 87 434 l 87 521 l 174 521 l 174 608 l 260 608 l 260 694 l 347 694 l 347 781 l 260 781 l 260 868 l 608 868 l 608 521 l 521 521 l 521 694 "},"ċ":{"ha":781,"x_min":0,"x_max":0,"o":"m 174 781 l 174 434 l 347 434 l 347 781 m 174 260 l 174 347 l 87 347 l 87 434 l 0 434 l 0 781 l 87 781 l 87 868 l 434 868 l 434 781 l 521 781 l 521 434 l 434 434 l 434 347 l 347 347 l 347 260 l 521 260 l 521 174 l 347 174 l 347 0 l 174 0 l 174 174 l 0 174 l 0 260 "},"Č":{"ha":781,"x_min":0,"x_max":0,"o":"m 521 694 l 521 781 l 347 781 l 347 694 m 347 87 l 260 87 l 260 0 l 0 0 l 0 174 l 87 174 l 87 260 l 174 260 l 174 868 l 694 868 l 694 608 l 347 608 "},"č":{"ha":781,"x_min":0,"x_max":0,"o":"m 521 694 l 521 781 l 260 781 l 260 694 m 521 347 l 521 608 l 260 608 l 260 87 l 174 87 l 174 0 l 0 0 l 0 260 l 87 260 l 87 868 l 694 868 l 694 174 l 608 174 l 608 87 l 434 87 l 434 347 "},"Ď":{"ha":781,"x_min":0,"x_max":0,"o":"m 174 260 l 174 174 l 0 174 l 0 260 m 434 347 l 434 434 l 260 434 l 260 347 m 694 608 l 694 521 l 521 521 l 521 608 m 434 260 l 434 0 l 260 0 l 260 260 l 174 260 l 174 347 l 0 347 l 0 434 l 174 434 l 174 521 l 0 521 l 0 608 l 174 608 l 174 521 l 260 521 l 260 781 l 434 781 l 434 521 l 521 521 l 521 434 l 694 434 l 694 347 l 521 347 l 521 260 l 694 260 l 694 174 l 521 174 l 521 260 "},"ď":{"ha":781,"x_min":0,"x_max":0,"o":"m 347 347 l 347 260 l 260 260 l 260 174 l 174 174 l 174 87 l 87 87 l 87 0 l 0 0 l 0 955 l 87 955 l 87 868 l 174 868 l 174 781 l 260 781 l 260 694 l 347 694 l 347 608 l 434 608 l 434 521 l 608 521 l 608 434 l 434 434 l 434 347 "},"Đ":{"ha":781,"x_min":0,"x_max":0,"o":"m 174 521 l 174 608 l 260 608 l 260 694 l 347 694 l 347 781 l 434 781 l 434 868 l 521 868 l 521 955 l 608 955 l 608 0 l 521 0 l 521 87 l 434 87 l 434 174 l 347 174 l 347 260 l 260 260 l 260 347 l 174 347 l 174 434 l 0 434 l 0 521 "},"đ":{"ha":781,"x_min":0,"x_max":0,"o":"m 174 174 l 174 260 l 87 260 l 87 347 l 260 347 l 260 608 l 87 608 l 87 694 l 174 694 l 174 781 l 260 781 l 260 868 l 434 868 l 434 781 l 521 781 l 521 694 l 608 694 l 608 608 l 434 608 l 434 347 l 608 347 l 608 260 l 521 260 l 521 174 l 434 174 l 434 87 l 260 87 l 260 174 "},"Ē":{"ha":781,"x_min":0,"x_max":0,"o":"m 608 174 l 608 0 l 434 0 l 434 174 m 260 174 l 260 0 l 87 0 l 87 174 m 608 868 l 608 260 l 434 260 l 434 868 m 260 868 l 260 260 l 87 260 l 87 868 "},"ē":{"ha":781,"x_min":0,"x_max":0,"o":"m 260 521 l 260 781 l 174 781 l 174 521 m 87 781 l 87 868 l 694 868 l 694 0 l 521 0 l 521 781 l 434 781 l 434 0 l 260 0 l 260 434 l 87 434 l 87 521 l 0 521 l 0 781 "},"Ĕ":{"ha":781,"x_min":0,"x_max":0,"o":"m 434 347 l 434 521 l 347 521 l 347 608 l 260 608 l 260 521 l 174 521 l 174 347 l 260 347 l 260 260 l 347 260 l 347 347 m 174 87 l 174 0 l 434 0 l 434 87 l 347 87 l 347 174 l 174 174 l 174 260 l 87 260 l 87 347 l 0 347 l 0 521 l 87 521 l 87 608 l 174 608 l 174 694 l 87 694 l 87 781 l 0 781 l 0 868 l 87 868 l 87 955 l 521 955 l 521 868 l 608 868 l 608 781 l 434 781 l 434 868 l 174 868 l 174 781 l 260 781 l 260 694 l 434 694 l 434 608 l 521 608 l 521 521 l 608 521 l 608 347 l 521 347 l 521 260 l 434 260 l 434 174 l 521 174 l 521 87 l 608 87 l 608 0 l 521 0 l 521 -87 l 87 -87 l 87 0 l 0 0 l 0 87 "},"ĕ":{"ha":781,"x_min":0,"x_max":0,"o":"m 608 347 l 608 0 l 0 0 l 0 347 "},"Ė":{"ha":781,"x_min":0,"x_max":0,"o":"m 174 694 l 174 781 l 260 781 l 260 868 l 434 868 l 434 781 l 521 781 l 521 694 l 608 694 l 608 608 l 434 608 l 434 347 l 608 347 l 608 260 l 521 260 l 521 174 l 434 174 l 434 87 l 608 87 l 608 0 l 87 0 l 87 87 l 260 87 l 260 174 l 174 174 l 174 260 l 87 260 l 87 347 l 260 347 l 260 608 l 87 608 l 87 694 "},"ė":{"ha":781,"x_min":0,"x_max":0,"o":"m 174 694 l 174 781 l 260 781 l 260 868 l 434 868 l 434 781 l 521 781 l 521 694 l 608 694 l 608 608 l 434 608 l 434 0 l 260 0 l 260 608 l 87 608 l 87 694 "},"Ę":{"ha":781,"x_min":0,"x_max":0,"o":"m 260 260 l 260 868 l 434 868 l 434 260 l 608 260 l 608 174 l 521 174 l 521 87 l 434 87 l 434 0 l 260 0 l 260 87 l 174 87 l 174 174 l 87 174 l 87 260 "},"ę":{"ha":781,"x_min":0,"x_max":0,"o":"m 434 608 l 434 521 l 521 521 l 521 434 l 608 434 l 608 347 l 521 347 l 521 260 l 434 260 l 434 174 l 260 174 l 260 260 l 347 260 l 347 347 l 0 347 l 0 434 l 347 434 l 347 521 l 260 521 l 260 608 "},"Ě":{"ha":781,"x_min":0,"x_max":0,"o":"m 87 260 l 87 347 l 0 347 l 0 434 l 87 434 l 87 521 l 174 521 l 174 608 l 347 608 l 347 521 l 260 521 l 260 434 l 608 434 l 608 347 l 260 347 l 260 260 l 347 260 l 347 174 l 174 174 l 174 260 "},"ě":{"ha":781,"x_min":0,"x_max":0,"o":"m 174 521 l 174 260 l 608 260 l 608 174 l 0 174 l 0 521 "},"Ĝ":{"ha":781,"x_min":0,"x_max":0,"o":"m 434 260 l 434 174 l 347 174 l 347 347 l 260 347 l 260 174 l 174 174 l 174 260 l 87 260 l 87 347 l 0 347 l 0 434 l 87 434 l 87 521 l 174 521 l 174 608 l 260 608 l 260 434 l 347 434 l 347 608 l 434 608 l 434 521 l 521 521 l 521 434 l 608 434 l 608 347 l 521 347 l 521 260 "},"ĝ":{"ha":781,"x_min":0,"x_max":0,"o":"m 87 260 l 87 434 l 174 434 l 174 608 l 260 608 l 260 694 l 347 694 l 347 608 l 434 608 l 434 434 l 521 434 l 521 260 l 608 260 l 608 87 l 0 87 l 0 260 "},"Ğ":{"ha":781,"x_min":0,"x_max":0,"o":"m 434 347 l 434 174 l 347 174 l 347 87 l 260 87 l 260 174 l 174 174 l 174 347 l 87 347 l 87 521 l 0 521 l 0 694 l 608 694 l 608 521 l 521 521 l 521 347 "},"ğ":{"ha":781,"x_min":0,"x_max":0,"o":"m 260 521 l 260 434 l 174 434 l 174 174 l 434 174 l 434 434 l 347 434 l 347 521 m 521 521 l 521 434 l 608 434 l 608 87 l 0 87 l 0 434 l 87 434 l 87 521 l 174 521 l 174 608 l 260 608 l 260 694 l 347 694 l 347 608 l 434 608 l 434 521 "},"Ġ":{"ha":781,"x_min":0,"x_max":0,"o":"m 694 -87 l 694 -174 l 0 -174 l 0 -87 "},"ġ":{"ha":781,"x_min":0,"x_max":0,"o":"m 608 -87 l 608 -174 l 0 -174 l 0 -87 "},"Ģ":{"ha":781,"x_min":0,"x_max":0,"o":"m 521 -87 l 521 -174 l 0 -174 l 0 -87 "},"ģ":{"ha":781,"x_min":0,"x_max":0,"o":"m 434 -87 l 434 -174 l 0 -174 l 0 -87 "},"Ĥ":{"ha":781,"x_min":0,"x_max":0,"o":"m 347 -87 l 347 -174 l 0 -174 l 0 -87 "},"ĥ":{"ha":781,"x_min":0,"x_max":0,"o":"m 260 -87 l 260 -174 l 0 -174 l 0 -87 "},"Ħ":{"ha":781,"x_min":0,"x_max":0,"o":"m 174 -87 l 174 -174 l 0 -174 l 0 -87 "},"ħ":{"ha":781,"x_min":0,"x_max":0,"o":"m 87 -87 l 87 -174 l 0 -174 l 0 -87 "},"Ĩ":{"ha":781,"x_min":0,"x_max":0,"o":"m 347 781 l 347 434 l 174 434 l 174 781 "},"ƒ":{"ha":781,"x_min":0,"x_max":0,"o":"m 260 521 l 260 868 l 347 868 l 347 955 l 608 955 l 608 868 l 694 868 l 694 781 l 521 781 l 521 868 l 434 868 l 434 521 l 608 521 l 608 434 l 434 434 l 434 87 l 347 87 l 347 0 l 87 0 l 87 87 l 0 87 l 0 174 l 174 174 l 174 87 l 260 87 l 260 434 l 87 434 l 87 521 "},"Γ":{"ha":781,"x_min":0,"x_max":0,"o":"m 0 0 l 0 868 l 608 868 l 608 608 l 434 608 l 434 781 l 174 781 l 174 0 "},"Θ":{"ha":781,"x_min":0,"x_max":0,"o":"m 434 521 l 434 694 l 347 694 l 347 781 l 260 781 l 260 694 l 174 694 l 174 521 m 260 174 l 260 87 l 347 87 l 347 174 l 434 174 l 434 434 l 174 434 l 174 174 m 87 87 l 87 174 l 0 174 l 0 694 l 87 694 l 87 781 l 174 781 l 174 868 l 434 868 l 434 781 l 521 781 l 521 694 l 608 694 l 608 174 l 521 174 l 521 87 l 434 87 l 434 0 l 174 0 l 174 87 "},"Σ":{"ha":781,"x_min":0,"x_max":0,"o":"m 87 174 l 87 260 l 174 260 l 174 347 l 260 347 l 260 521 l 174 521 l 174 608 l 87 608 l 87 694 l 0 694 l 0 868 l 608 868 l 608 694 l 434 694 l 434 781 l 174 781 l 174 694 l 260 694 l 260 608 l 347 608 l 347 521 l 434 521 l 434 347 l 347 347 l 347 260 l 260 260 l 260 174 l 174 174 l 174 87 l 434 87 l 434 174 l 608 174 l 608 0 l 0 0 l 0 174 "},"Φ":{"ha":781,"x_min":0,"x_max":0,"o":"m 260 608 l 260 260 l 434 260 l 434 608 m 174 608 l 174 694 l 260 694 l 260 781 l 87 781 l 87 868 l 608 868 l 608 781 l 434 781 l 434 694 l 521 694 l 521 608 l 608 608 l 608 260 l 521 260 l 521 174 l 434 174 l 434 87 l 608 87 l 608 0 l 87 0 l 87 87 l 260 87 l 260 174 l 174 174 l 174 260 l 87 260 l 87 608 "},"Ω":{"ha":781,"x_min":0,"x_max":0,"o":"m 260 781 l 260 694 l 174 694 l 174 434 l 260 434 l 260 0 l 0 0 l 0 87 l 87 87 l 87 434 l 0 434 l 0 694 l 87 694 l 87 781 l 174 781 l 174 868 l 434 868 l 434 781 l 521 781 l 521 694 l 608 694 l 608 434 l 521 434 l 521 87 l 608 87 l 608 0 l 347 0 l 347 434 l 434 434 l 434 694 l 347 694 l 347 781 "},"α":{"ha":781,"x_min":0,"x_max":0,"o":"m 174 521 l 174 87 l 260 87 l 260 521 m 347 87 l 347 0 l 87 0 l 87 87 l 0 87 l 0 521 l 87 521 l 87 608 l 347 608 l 347 521 l 434 521 l 434 608 l 608 608 l 608 521 l 521 521 l 521 434 l 434 434 l 434 174 l 521 174 l 521 87 l 608 87 l 608 0 l 434 0 l 434 87 "},"δ":{"ha":781,"x_min":0,"x_max":0,"o":"m 260 434 l 260 87 l 434 87 l 434 434 m 608 868 l 608 781 l 347 781 l 347 694 l 434 694 l 434 608 l 521 608 l 521 521 l 608 521 l 608 87 l 521 87 l 521 0 l 174 0 l 174 87 l 87 87 l 87 434 l 174 434 l 174 521 l 347 521 l 347 608 l 260 608 l 260 694 l 174 694 l 174 781 l 260 781 l 260 868 "},"ε":{"ha":781,"x_min":0,"x_max":0,"o":"m 347 174 l 347 87 l 521 87 l 521 0 l 260 0 l 260 87 l 174 87 l 174 174 l 87 174 l 87 694 l 174 694 l 174 781 l 260 781 l 260 868 l 521 868 l 521 781 l 347 781 l 347 694 l 260 694 l 260 521 l 521 521 l 521 434 l 260 434 l 260 174 "},"π":{"ha":781,"x_min":0,"x_max":0,"o":"m 260 521 l 260 0 l 87 0 l 87 521 l 0 521 l 0 608 l 608 608 l 608 521 l 521 521 l 521 0 l 347 0 l 347 521 "},"σ":{"ha":781,"x_min":0,"x_max":0,"o":"m 174 521 l 174 87 l 260 87 l 260 521 m 87 521 l 87 608 l 608 608 l 608 521 l 434 521 l 434 87 l 347 87 l 347 0 l 87 0 l 87 87 l 0 87 l 0 521 "},"τ":{"ha":781,"x_min":0,"x_max":0,"o":"m 174 608 l 174 521 l 0 521 l 0 608 l 87 608 l 87 694 l 347 694 l 347 608 l 434 608 l 434 694 l 608 694 l 608 608 l 521 608 l 521 521 l 434 521 l 434 0 l 260 0 l 260 608 "},"φ":{"ha":781,"x_min":0,"x_max":0,"o":"m 174 521 l 174 347 l 260 347 l 260 521 m 434 521 l 434 347 l 347 347 l 347 260 l 521 260 l 521 521 m 608 174 l 260 174 l 260 87 l 174 87 l 174 0 l 0 0 l 0 87 l 87 87 l 87 260 l 0 260 l 0 521 l 87 521 l 87 608 l 434 608 l 434 694 l 521 694 l 521 781 l 781 781 l 781 694 l 608 694 l 608 521 l 781 521 l 781 260 l 608 260 "},"ⁿ":{"ha":781,"x_min":0,"x_max":0,"o":"m 521 955 l 521 868 l 608 868 l 608 434 l 434 434 l 434 868 l 347 868 l 347 955 m 87 868 l 87 955 l 260 955 l 260 868 l 347 868 l 347 434 l 174 434 l 174 868 "},"₧":{"ha":781,"x_min":0,"x_max":0,"o":"m 174 868 l 174 694 l 347 694 l 347 868 m 347 434 l 347 521 l 434 521 l 434 608 l 174 608 l 174 0 l 0 0 l 0 955 l 434 955 l 434 868 l 521 868 l 521 694 l 434 694 l 434 608 l 521 608 l 521 434 l 608 434 l 608 347 l 521 347 l 521 87 l 608 87 l 608 0 l 434 0 l 434 87 l 347 87 l 347 347 l 260 347 l 260 434 "},"∙":{"ha":781,"x_min":0,"x_max":0,"o":"m 434 434 l 434 260 l 260 260 l 260 434 "},"√":{"ha":781,"x_min":0,"x_max":0,"o":"m 260 434 l 260 174 l 347 174 l 347 955 l 694 955 l 694 868 l 521 868 l 521 0 l 260 0 l 260 87 l 174 87 l 174 174 l 87 174 l 87 347 l 0 347 l 0 434 "},"∞":{"ha":781,"x_min":0,"x_max":0,"o":"m 174 521 l 174 260 l 260 260 l 260 521 m 434 521 l 434 260 l 521 260 l 521 521 m 87 174 l 87 260 l 0 260 l 0 521 l 87 521 l 87 608 l 608 608 l 608 521 l 781 521 l 781 260 l 608 260 l 608 174 "},"∩":{"ha":781,"x_min":0,"x_max":0,"o":"m 174 694 l 174 0 l 0 0 l 0 694 l 87 694 l 87 781 l 521 781 l 521 694 l 608 694 l 608 0 l 434 0 l 434 694 "},"≈":{"ha":781,"x_min":0,"x_max":0,"o":"m 608 608 l 608 521 l 521 521 l 521 434 l 260 434 l 260 521 l 174 521 l 174 434 l 0 434 l 0 521 l 87 521 l 87 608 l 347 608 l 347 521 l 434 521 l 434 608 m 608 347 l 608 260 l 521 260 l 521 174 l 260 174 l 260 260 l 174 260 l 174 174 l 0 174 l 0 260 l 87 260 l 87 347 l 347 347 l 347 260 l 434 260 l 434 347 "},"≡":{"ha":781,"x_min":0,"x_max":0,"o":"m 608 434 l 608 347 l 0 347 l 0 434 m 608 694 l 608 608 l 0 608 l 0 694 m 608 174 l 608 87 l 0 87 l 0 174 "},"≤":{"ha":781,"x_min":0,"x_max":0,"o":"m 608 87 l 608 0 l 87 0 l 87 87 m 521 781 l 521 694 l 434 694 l 434 608 l 347 608 l 347 521 l 260 521 l 260 434 l 347 434 l 347 347 l 434 347 l 434 260 l 521 260 l 521 174 l 347 174 l 347 260 l 260 260 l 260 347 l 174 347 l 174 434 l 87 434 l 87 521 l 174 521 l 174 608 l 260 608 l 260 694 l 347 694 l 347 781 "},"≥":{"ha":781,"x_min":0,"x_max":0,"o":"m 608 87 l 608 0 l 87 0 l 87 87 m 347 781 l 347 694 l 434 694 l 434 608 l 521 608 l 521 521 l 608 521 l 608 434 l 521 434 l 521 347 l 434 347 l 434 260 l 347 260 l 347 174 l 174 174 l 174 260 l 260 260 l 260 347 l 347 347 l 347 434 l 434 434 l 434 521 l 347 521 l 347 608 l 260 608 l 260 694 l 174 694 l 174 781 "},"⌐":{"ha":781,"x_min":0,"x_max":0,"o":"m 0 87 l 0 521 l 608 521 l 608 434 l 174 434 l 174 87 "},"⌠":{"ha":781,"x_min":0,"x_max":0,"o":"m 434 781 l 434 -347 l 260 -347 l 260 781 l 347 781 l 347 868 l 608 868 l 608 781 l 694 781 l 694 608 l 521 608 l 521 781 "},"⌡":{"ha":781,"x_min":0,"x_max":0,"o":"m 174 174 l 174 0 l 260 0 l 260 1042 l 434 1042 l 434 0 l 347 0 l 347 -87 l 87 -87 l 87 0 l 0 0 l 0 174 "},"─":{"ha":781,"x_min":0,"x_max":0,"o":"m 781 434 l 781 347 l 0 347 l 0 434 "},"│":{"ha":781,"x_min":0,"x_max":0,"o":"m 434 1042 l 434 -347 l 260 -347 l 260 1042 "},"┌":{"ha":781,"x_min":0,"x_max":0,"o":"m 781 434 l 781 347 l 434 347 l 434 -347 l 260 -347 l 260 434 "},"┐":{"ha":781,"x_min":0,"x_max":0,"o":"m 434 434 l 434 -347 l 260 -347 l 260 347 l 0 347 l 0 434 "},"└":{"ha":781,"x_min":0,"x_max":0,"o":"m 434 1042 l 434 434 l 781 434 l 781 347 l 260 347 l 260 1042 "},"┘":{"ha":781,"x_min":0,"x_max":0,"o":"m 260 434 l 260 1042 l 434 1042 l 434 347 l 0 347 l 0 434 "},"├":{"ha":781,"x_min":0,"x_max":0,"o":"m 260 -347 l 260 1042 l 434 1042 l 434 434 l 781 434 l 781 347 l 434 347 l 434 -347 "},"┤":{"ha":781,"x_min":0,"x_max":0,"o":"m 260 434 l 260 1042 l 434 1042 l 434 -347 l 260 -347 l 260 347 l 0 347 l 0 434 "},"┬":{"ha":781,"x_min":0,"x_max":0,"o":"m 781 434 l 781 347 l 434 347 l 434 -347 l 260 -347 l 260 347 l 0 347 l 0 434 "},"┴":{"ha":781,"x_min":0,"x_max":0,"o":"m 260 434 l 260 1042 l 434 1042 l 434 434 l 781 434 l 781 347 l 0 347 l 0 434 "},"┼":{"ha":781,"x_min":0,"x_max":0,"o":"m 260 434 l 260 1042 l 434 1042 l 434 434 l 781 434 l 781 347 l 434 347 l 434 -347 l 260 -347 l 260 347 l 0 347 l 0 434 "},"═":{"ha":781,"x_min":0,"x_max":0,"o":"m 781 434 l 781 347 l 0 347 l 0 434 m 781 608 l 781 521 l 0 521 l 0 608 "},"║":{"ha":781,"x_min":0,"x_max":0,"o":"m 608 1042 l 608 -347 l 434 -347 l 434 1042 m 347 1042 l 347 -347 l 174 -347 l 174 1042 "},"╒":{"ha":781,"x_min":0,"x_max":0,"o":"m 781 521 l 434 521 l 434 434 l 781 434 l 781 347 l 434 347 l 434 -347 l 260 -347 l 260 608 l 781 608 "},"╓":{"ha":781,"x_min":0,"x_max":0,"o":"m 347 347 l 347 -347 l 174 -347 l 174 434 l 781 434 l 781 347 l 608 347 l 608 -347 l 434 -347 l 434 347 "},"╔":{"ha":781,"x_min":0,"x_max":0,"o":"m 434 434 l 781 434 l 781 347 l 608 347 l 608 -347 l 434 -347 l 434 0 m 781 608 l 781 521 l 347 521 l 347 -347 l 174 -347 l 174 608 "},"╕":{"ha":781,"x_min":0,"x_max":0,"o":"m 434 608 l 434 -347 l 260 -347 l 260 347 l 0 347 l 0 434 l 260 434 l 260 521 l 0 521 l 0 608 "},"╖":{"ha":781,"x_min":0,"x_max":0,"o":"m 347 347 l 347 -347 l 174 -347 l 174 347 l 0 347 l 0 434 l 608 434 l 608 -347 l 434 -347 l 434 347 "},"╗":{"ha":781,"x_min":0,"x_max":0,"o":"m 347 434 l 347 -347 l 174 -347 l 174 347 l 0 347 l 0 434 m 608 608 l 608 -347 l 434 -347 l 434 521 l 0 521 l 0 608 "},"╘":{"ha":781,"x_min":0,"x_max":0,"o":"m 434 1042 l 434 608 l 781 608 l 781 521 l 434 521 l 434 434 l 781 434 l 781 347 l 260 347 l 260 1042 "},"╙":{"ha":781,"x_min":0,"x_max":0,"o":"m 347 1042 l 347 434 l 434 434 l 434 1042 l 608 1042 l 608 434 l 781 434 l 781 347 l 174 347 l 174 1042 "},"╚":{"ha":781,"x_min":0,"x_max":0,"o":"m 608 1042 l 608 608 l 781 608 l 781 521 l 434 521 l 434 1042 m 347 1042 l 347 434 l 781 434 l 781 347 l 174 347 l 174 1042 "},"╛":{"ha":781,"x_min":0,"x_max":0,"o":"m 260 608 l 260 1042 l 434 1042 l 434 347 l 0 347 l 0 434 l 260 434 l 260 521 l 0 521 l 0 608 "},"╜":{"ha":781,"x_min":0,"x_max":0,"o":"m 174 434 l 174 1042 l 347 1042 l 347 434 l 434 434 l 434 1042 l 608 1042 l 608 347 l 0 347 l 0 434 "},"╝":{"ha":781,"x_min":0,"x_max":0,"o":"m 174 608 l 174 1042 l 347 1042 l 347 521 l 0 521 l 0 608 m 434 434 l 434 1042 l 608 1042 l 608 347 l 0 347 l 0 434 "},"╞":{"ha":781,"x_min":0,"x_max":0,"o":"m 781 434 l 781 347 l 434 347 l 434 -347 l 260 -347 l 260 1042 l 434 1042 l 434 608 l 781 608 l 781 521 l 434 521 l 434 434 "},"╟":{"ha":781,"x_min":0,"x_max":0,"o":"m 347 1042 l 347 -347 l 174 -347 l 174 1042 m 434 -347 l 434 1042 l 608 1042 l 608 434 l 781 434 l 781 347 l 608 347 l 608 -347 "},"╠":{"ha":781,"x_min":0,"x_max":0,"o":"m 608 1042 l 608 608 l 781 608 l 781 521 l 434 521 l 434 1042 m 781 434 l 781 347 l 608 347 l 608 -347 l 434 -347 l 434 434 m 347 1042 l 347 -347 l 174 -347 l 174 1042 "},"╡":{"ha":781,"x_min":0,"x_max":0,"o":"m 260 608 l 260 1042 l 434 1042 l 434 -347 l 260 -347 l 260 347 l 0 347 l 0 434 l 260 434 l 260 521 l 0 521 l 0 608 "},"╢":{"ha":781,"x_min":0,"x_max":0,"o":"m 608 1042 l 608 -347 l 434 -347 l 434 1042 m 174 434 l 174 1042 l 347 1042 l 347 -347 l 174 -347 l 174 347 l 0 347 l 0 434 "},"╣":{"ha":781,"x_min":0,"x_max":0,"o":"m 174 608 l 174 1042 l 347 1042 l 347 521 l 0 521 l 0 608 m 347 434 l 347 -347 l 174 -347 l 174 347 l 0 347 l 0 434 m 608 1042 l 608 -347 l 434 -347 l 434 1042 "},"╤":{"ha":781,"x_min":0,"x_max":0,"o":"m 781 608 l 781 521 l 0 521 l 0 608 m 781 434 l 781 347 l 434 347 l 434 -347 l 260 -347 l 260 347 l 0 347 l 0 434 "},"╥":{"ha":781,"x_min":0,"x_max":0,"o":"m 347 347 l 347 -347 l 174 -347 l 174 347 l 0 347 l 0 434 l 781 434 l 781 347 l 608 347 l 608 -347 l 434 -347 l 434 347 "},"╦":{"ha":781,"x_min":0,"x_max":0,"o":"m 781 608 l 781 521 l 0 521 l 0 608 m 781 434 l 781 347 l 608 347 l 608 -347 l 434 -347 l 434 434 m 347 434 l 347 -347 l 174 -347 l 174 347 l 0 347 l 0 434 "},"╧":{"ha":781,"x_min":0,"x_max":0,"o":"m 781 434 l 781 347 l 0 347 l 0 434 m 260 608 l 260 868 l 434 868 l 434 608 l 781 608 l 781 521 l 0 521 l 0 608 "},"╨":{"ha":781,"x_min":0,"x_max":0,"o":"m 174 434 l 174 1042 l 347 1042 l 347 434 l 434 434 l 434 1042 l 608 1042 l 608 434 l 781 434 l 781 347 l 0 347 l 0 434 "},"╩":{"ha":781,"x_min":0,"x_max":0,"o":"m 781 434 l 781 347 l 0 347 l 0 434 m 608 608 l 781 608 l 781 521 l 434 521 l 434 1042 l 608 1042 m 347 1042 l 347 521 l 0 521 l 0 608 l 174 608 l 174 1042 "},"╪":{"ha":781,"x_min":0,"x_max":0,"o":"m 260 608 l 260 1042 l 434 1042 l 434 608 l 781 608 l 781 521 l 434 521 l 434 434 l 781 434 l 781 347 l 434 347 l 434 -347 l 260 -347 l 260 347 l 0 347 l 0 434 l 260 434 l 260 521 l 0 521 l 0 608 "},"╫":{"ha":781,"x_min":0,"x_max":0,"o":"m 347 347 l 347 -347 l 174 -347 l 174 347 l 0 347 l 0 434 l 174 434 l 174 1042 l 347 1042 l 347 434 l 434 434 l 434 1042 l 608 1042 l 608 434 l 781 434 l 781 347 l 608 347 l 608 -347 l 434 -347 l 434 347 "},"╬":{"ha":781,"x_min":0,"x_max":0,"o":"m 174 608 l 174 1042 l 347 1042 l 347 521 l 0 521 l 0 608 m 608 1042 l 608 608 l 781 608 l 781 521 l 434 521 l 434 1042 m 781 347 l 608 347 l 608 -347 l 434 -347 l 434 434 l 781 434 m 347 434 l 347 -347 l 174 -347 l 174 347 l 0 347 l 0 434 "},"▀":{"ha":781,"x_min":0,"x_max":0,"o":"m 781 1042 l 781 434 l 0 434 l 0 1042 "},"▄":{"ha":781,"x_min":0,"x_max":0,"o":"m 781 434 l 781 -347 l 0 -347 l 0 434 "},"█":{"ha":781,"x_min":0,"x_max":0,"o":"m 781 1042 l 781 -347 l 0 -347 l 0 1042 "},"▌":{"ha":781,"x_min":0,"x_max":0,"o":"m 347 1042 l 347 -347 l 0 -347 l 0 1042 "},"▐":{"ha":781,"x_min":0,"x_max":0,"o":"m 781 1042 l 781 -347 l 347 -347 l 347 1042 "},"░":{"ha":781,"x_min":0,"x_max":0,"o":"m 694 0 l 694 -87 l 608 -87 l 608 0 m 694 347 l 694 260 l 608 260 l 608 347 m 694 694 l 694 608 l 608 608 l 608 694 m 694 868 l 694 781 l 608 781 l 608 868 m 694 521 l 694 434 l 608 434 l 608 521 m 694 174 l 694 87 l 608 87 l 608 174 m 694 -174 l 694 -260 l 608 -260 l 608 -174 m 694 1042 l 694 955 l 608 955 l 608 1042 m 521 -87 l 521 -174 l 434 -174 l 434 -87 m 521 260 l 521 174 l 434 174 l 434 260 m 521 608 l 521 521 l 434 521 l 434 608 m 521 781 l 521 694 l 434 694 l 434 781 m 521 434 l 521 347 l 434 347 l 434 434 m 521 87 l 521 0 l 434 0 l 434 87 m 521 -260 l 521 -347 l 434 -347 l 434 -260 m 521 955 l 521 868 l 434 868 l 434 955 m 347 0 l 347 -87 l 260 -87 l 260 0 m 347 347 l 347 260 l 260 260 l 260 347 m 347 694 l 347 608 l 260 608 l 260 694 m 347 868 l 347 781 l 260 781 l 260 868 m 347 521 l 347 434 l 260 434 l 260 521 m 347 174 l 347 87 l 260 87 l 260 174 m 347 -174 l 347 -260 l 260 -260 l 260 -174 m 347 1042 l 347 955 l 260 955 l 260 1042 m 174 -87 l 174 -174 l 87 -174 l 87 -87 m 174 260 l 174 174 l 87 174 l 87 260 m 174 608 l 174 521 l 87 521 l 87 608 m 174 781 l 174 694 l 87 694 l 87 781 m 174 434 l 174 347 l 87 347 l 87 434 m 174 87 l 174 0 l 87 0 l 87 87 m 174 -260 l 174 -347 l 87 -347 l 87 -260 m 174 955 l 174 868 l 87 868 l 87 955 "},"▒":{"ha":781,"x_min":0,"x_max":0,"o":"m 608 -260 l 608 -261 l 608 -347 l 522 -347 l 522 -260 m 694 -174 l 695 -174 l 694 -260 l 608 -260 l 608 -174 m 434 -260 l 435 -261 l 435 -347 l 348 -347 l 348 -260 m 521 -174 l 522 -174 l 521 -260 l 435 -260 l 435 -174 m 260 -260 l 261 -261 l 261 -347 l 174 -347 l 174 -260 m 347 -174 l 348 -174 l 347 -260 l 261 -260 l 261 -174 m 86 -260 l 87 -261 l 87 -347 l 0 -347 l 0 -260 m 173 -174 l 174 -174 l 173 -260 l 87 -260 l 87 -174 m 608 -87 l 608 -87 l 608 -174 l 522 -174 l 522 -87 m 694 0 l 695 -1 l 694 -87 l 608 -87 l 608 0 m 434 -87 l 435 -87 l 435 -174 l 348 -174 l 348 -87 m 521 0 l 522 -1 l 521 -87 l 435 -87 l 435 0 m 260 -87 l 261 -87 l 261 -174 l 174 -174 l 174 -87 m 347 0 l 348 -1 l 347 -87 l 261 -87 l 261 0 m 86 -87 l 87 -87 l 87 -174 l 0 -174 l 0 -87 m 173 0 l 174 -1 l 173 -87 l 87 -87 l 87 0 m 608 87 l 608 86 l 608 0 l 522 0 l 522 87 m 694 174 l 695 173 l 694 87 l 608 87 l 608 174 m 434 87 l 435 86 l 435 0 l 348 0 l 348 87 m 521 174 l 522 173 l 521 87 l 435 87 l 435 174 m 260 87 l 261 86 l 261 0 l 174 0 l 174 87 m 347 174 l 348 173 l 347 87 l 261 87 l 261 174 m 86 87 l 87 86 l 87 0 l 0 0 l 0 87 m 173 174 l 174 173 l 173 87 l 87 87 l 87 174 m 608 260 l 608 260 l 608 174 l 522 174 l 522 260 m 694 347 l 695 347 l 694 260 l 608 260 l 608 347 m 434 260 l 435 260 l 435 174 l 348 174 l 348 260 m 521 347 l 522 347 l 521 260 l 435 260 l 435 347 m 260 260 l 261 260 l 261 174 l 174 174 l 174 260 m 347 347 l 348 347 l 347 260 l 261 260 l 261 347 m 86 260 l 87 260 l 87 174 l 0 174 l 0 260 m 173 347 l 174 347 l 173 260 l 87 260 l 87 347 m 608 434 l 608 433 l 608 347 l 522 347 l 522 434 m 694 521 l 695 520 l 694 434 l 608 434 l 608 521 m 434 434 l 435 433 l 435 347 l 348 347 l 348 434 m 521 521 l 522 520 l 521 434 l 435 434 l 435 521 m 260 434 l 261 433 l 261 347 l 174 347 l 174 434 m 347 521 l 348 520 l 347 434 l 261 434 l 261 521 m 86 434 l 87 433 l 87 347 l 0 347 l 0 434 m 173 521 l 174 520 l 173 434 l 87 434 l 87 521 m 608 608 l 608 607 l 608 521 l 522 521 l 522 608 m 694 694 l 695 694 l 694 608 l 608 608 l 608 694 m 434 608 l 435 607 l 435 521 l 348 521 l 348 608 m 521 694 l 522 694 l 521 608 l 435 608 l 435 694 m 260 608 l 261 607 l 261 521 l 174 521 l 174 608 m 347 694 l 348 694 l 347 608 l 261 608 l 261 694 m 86 608 l 87 607 l 87 521 l 0 521 l 0 608 m 173 694 l 174 694 l 173 608 l 87 608 l 87 694 m 608 781 l 608 781 l 608 694 l 522 694 l 522 781 m 694 868 l 695 867 l 694 781 l 608 781 l 608 868 m 434 781 l 435 781 l 435 694 l 348 694 l 348 781 m 521 868 l 522 867 l 521 781 l 435 781 l 435 868 m 260 781 l 261 781 l 261 694 l 174 694 l 174 781 m 347 868 l 348 867 l 347 781 l 261 781 l 261 868 m 86 781 l 87 781 l 87 694 l 0 694 l 0 781 m 173 868 l 174 867 l 173 781 l 87 781 l 87 868 m 607 955 l 608 954 l 608 868 l 521 868 l 521 955 m 694 1042 l 694 955 l 608 955 l 608 1042 m 433 955 l 434 954 l 434 868 l 347 868 l 347 955 m 521 1042 l 521 955 l 434 955 l 434 1042 m 260 955 l 260 954 l 260 868 l 174 868 l 174 955 m 347 1042 l 347 955 l 260 955 l 260 1042 m 86 955 l 87 954 l 87 868 l 0 868 l 0 955 m 174 1042 l 174 955 l 87 955 l 87 1042 "},"▓":{"ha":781,"x_min":0,"x_max":0,"o":"m 608 868 l 521 868 l 521 781 l 608 781 m 608 521 l 521 521 l 521 434 l 608 434 m 608 174 l 521 174 l 521 87 l 608 87 m 608 -174 l 521 -174 l 521 -260 l 608 -260 m 434 -87 l 347 -87 l 347 -174 l 434 -174 m 434 260 l 347 260 l 347 174 l 434 174 m 434 608 l 347 608 l 347 521 l 434 521 m 434 955 l 347 955 l 347 868 l 434 868 m 260 347 l 174 347 l 174 260 l 260 260 m 260 0 l 174 0 l 174 -87 l 260 -87 m 260 694 l 174 694 l 174 608 l 260 608 m 260 868 l 174 868 l 174 781 l 260 781 m 260 -174 l 174 -174 l 174 -260 l 260 -260 m 260 174 l 174 174 l 174 87 l 260 87 m 260 521 l 174 521 l 174 434 l 260 434 m 434 781 l 347 781 l 347 694 l 434 694 m 434 434 l 347 434 l 347 347 l 434 347 m 434 87 l 347 87 l 347 0 l 434 0 m 608 0 l 521 0 l 521 -87 l 608 -87 m 608 347 l 521 347 l 521 260 l 608 260 m 608 694 l 521 694 l 521 608 l 608 608 m 608 1042 l 694 1042 l 694 -347 l 434 -347 l 434 -260 l 347 -260 l 347 -347 l 87 -347 l 87 -260 l 0 -260 l 0 -174 l 87 -174 l 87 -87 l 0 -87 l 0 0 l 87 0 l 87 87 l 0 87 l 0 174 l 87 174 l 87 260 l 0 260 l 0 347 l 87 347 l 87 434 l 0 434 l 0 521 l 87 521 l 87 608 l 0 608 l 0 694 l 87 694 l 87 781 l 0 781 l 0 868 l 87 868 l 87 955 l 0 955 l 0 1042 l 174 1042 l 174 955 l 260 955 l 260 1042 l 521 1042 l 521 955 l 608 955 "},"▖":{"ha":781,"x_min":0,"x_max":0,"o":"m 347 434 l 347 -347 l 0 -347 l 0 434 "},"▗":{"ha":781,"x_min":0,"x_max":0,"o":"m 347 434 l 347 -347 l 781 -347 l 781 434 "},"▘":{"ha":781,"x_min":0,"x_max":0,"o":"m 347 434 l 347 1042 l 0 1042 l 0 434 "},"▝":{"ha":781,"x_min":0,"x_max":0,"o":"m 347 434 l 347 1042 l 781 1042 l 781 434 "},"■":{"ha":781,"x_min":0,"x_max":0,"o":"m 608 694 l 608 87 l 87 87 l 87 694 "}}}
